<?xml version="1.0" encoding="UTF-8"?>
<svg width="250" height="82" fill="none" version="1.1" viewBox="0 0 250 82" xmlns="http://www.w3.org/2000/svg">
  <title>Studio 903</title>
  <g fill="#000">
    <path d="m62.789 35.952c-12.497-0.1829-22.874 9.898-23.058 22.394-0.183 12.497 9.8957 22.875 22.392 23.058 12.497 0.1829 22.874-9.8957 23.058-22.392 0.1829-12.497-9.8957-22.877-22.392-23.06zm-0.1338 9.1459c7.5548 0.1106 13.493 6.2252 13.382 13.78-0.1106 7.5548-6.2253 13.491-13.78 13.38-7.5548-0.1106-13.493-6.223-13.382-13.778 0.1105-7.5548 6.2252-13.493 13.78-13.382z"/>
    <path d="m76.017 5.6692e-4c-5.5317 0.027221-11.094 1.7674-15.818 5.3424l6.438 8.5075c7.0287-5.3197 16.879-3.9565 22.199 3.0723 5.3125 7.0193 3.9595 16.853-3.0452 22.177-0.0091 0.0072-0.0186 0.0136-0.028 0.0208l6.4386 8.5074c7.0284-5.3198 16.879-3.9566 22.198 3.0723 5.32 7.0287 3.958 16.88-3.072 22.199l6.438 8.5065c11.627-8.7994 13.941-25.52 5.141-37.144-5.207-6.8802-13.189-10.499-21.246-10.483 2.204-7.7506 0.889-16.414-4.3182-23.295-5.2245-6.9028-13.24-10.523-21.325-10.483z"/>
    <path d="m22.476 1.4184c-12.234 0.13369-22.294 10.092-22.474 22.393-0.18297 12.497 9.8961 22.875 22.392 23.058 0.8963 0.0132 1.7807-0.0284 2.6522-0.1178l-17.89 29.968 7.8519 4.6889 27.186-45.533-0.017-0.0092c2.0225-3.3346 3.2146-7.2256 3.2754-11.385 0.1829-12.497-9.8961-22.875-22.392-23.058-0.1954-0.0023-0.391-0.00652-0.5852-0.00423zm0.0969 9.1436c0.1173-0.0011 0.2354-5e-4 0.3534 0.0012 7.5548 0.1106 13.493 6.2248 13.382 13.78-0.0369 2.5201-0.7449 4.8579-1.9484 6.8534l-0.0194-0.0104-0.3676 0.615c-2.472 3.645-6.6697 5.9943-11.446 5.9244-7.5548-0.1106-13.493-6.2249-13.382-13.78 0.10882-7.4369 6.0364-13.308 13.428-13.384z"/>
    <path d="m169.19 74.828c-0.593 0.0625-1.154 0.0625-1.684 0-0.53-0.0312-0.795-0.1875-0.795-0.4687 0-0.3125 0.078-0.5468 0.234-0.703 0.156-0.1875 0.577-0.3594 1.263-0.5156 1.496-0.375 2.992-0.9218 4.489-1.6405 1.527-0.7499 2.993-1.6404 4.395-2.6715 1.403-1.0624 2.697-2.2498 3.882-3.5621 1.216-1.3124 2.275-2.7185 3.18-4.2183 0.904-1.4999 1.605-3.0778 2.104-4.7339 0.53-1.6873 0.795-3.4059 0.795-5.1557 0-1.2811-0.312-2.3278-0.935-3.1403-0.624-0.8436-1.575-1.2654-2.853-1.2654-0.998 0-1.902 0.3437-2.712 1.0311-0.78 0.6562-1.387 1.5623-1.824 2.7184-0.436 1.1562-0.639 2.4373-0.608 3.8434 0.031 1.1561 0.39 2.0935 1.076 2.8122 0.686 0.6874 1.387 1.0311 2.104 1.0311 0.343 0 0.624-0.0312 0.842-0.0937 0.249-0.0625 0.483-0.1406 0.701-0.2344 0.78-0.3124 1.169-0.2968 1.169 0.0469 0 0.125-0.062 0.2812-0.187 0.4687-0.093 0.1875-0.265 0.4062-0.514 0.6562-0.624 0.6249-1.263 1.1561-1.917 1.5935-0.437 0.2813-0.889 0.5312-1.357 0.75-0.436 0.1874-0.872 0.3437-1.309 0.4687-0.436 0.1249-0.857 0.1874-1.262 0.1874-1.684 0-3.04-0.453-4.069-1.3592-1.029-0.9374-1.543-2.3122-1.543-4.1245 0-1.1874 0.374-2.4529 1.122-3.7965 0.749-1.3748 1.762-2.656 3.04-3.8433 1.309-1.2186 2.806-2.2185 4.489-2.9997 1.684-0.7812 3.46-1.1717 5.331-1.1717 1.434 0 2.681 0.3749 3.741 1.1248 1.06 0.7187 1.886 1.6717 2.478 2.8591 0.624 1.1874 0.936 2.4997 0.936 3.9371 0 1.4061-0.297 2.8903-0.889 4.4526s-1.434 3.1403-2.525 4.7339c-1.06 1.5623-2.323 3.0777-3.788 4.5463-1.465 1.4374-3.086 2.7497-4.863 3.9371-1.746 1.1874-3.616 2.1716-5.612 2.9528-1.995 0.7812-4.037 1.2967-6.125 1.5467z"/>
    <path d="m202.76 74.875c-1.714 0-3.164-0.375-4.348-1.1249-1.185-0.7499-2.089-1.7967-2.713-3.1403-0.592-1.3748-0.888-2.9528-0.888-4.7338 0-1.8123 0.327-3.7496 0.982-5.8119 0.655-2.156 1.543-4.1714 2.665-6.0462 1.123-1.8748 2.416-3.4996 3.882-4.8745 1.496-1.4061 3.117-2.4997 4.863-3.2809 1.746-0.8124 3.569-1.2186 5.471-1.2186 1.777 0 3.258 0.3906 4.442 1.1718 1.185 0.7811 2.074 1.8591 2.666 3.234 0.592 1.3436 0.873 2.9059 0.842 4.687 0 1.7498-0.312 3.6246-0.936 5.6243-0.717 2.3123-1.667 4.4214-2.852 6.3275-1.154 1.8748-2.494 3.4996-4.022 4.8744-1.496 1.3749-3.102 2.4373-4.816 3.1872-1.715 0.7499-3.461 1.1249-5.238 1.1249zm1.357-2.0154c0.685 0 1.371-0.3437 2.057-1.0312 0.686-0.7186 1.356-1.6717 2.011-2.859 0.686-1.1874 1.325-2.531 1.917-4.0308 0.624-1.5311 1.185-3.1091 1.684-4.7339 0.498-1.6248 0.888-3.2184 1.169-4.7807 0.311-1.5936 0.483-3.0309 0.514-4.312 0.031-1.3124-0.125-2.3592-0.468-3.1403-0.343-0.7812-0.888-1.1718-1.636-1.1718-0.904 0-1.824 0.5937-2.759 1.7811-0.935 1.1561-1.824 2.6872-2.666 4.5932-0.841 1.9061-1.59 3.9371-2.244 6.0931-0.499 1.6248-0.904 3.234-1.216 4.8276-0.281 1.5936-0.437 3.0622-0.468 4.4058-0.031 1.3123 0.109 2.3747 0.421 3.1871 0.343 0.7812 0.904 1.1718 1.684 1.1718z"/>
    <path d="m221.47 76c-1.559 0-2.774-0.2031-3.647-0.6093-0.842-0.3749-1.263-0.9061-1.263-1.5935 0-0.75 0.156-1.3593 0.468-1.828s0.717-0.703 1.216-0.703c0.187 0 0.452 0.0937 0.795 0.2812 0.342 0.1562 0.717 0.3593 1.122 0.6093 0.53 0.3125 1.107 0.5937 1.73 0.8437 0.624 0.2499 1.231 0.3749 1.824 0.3749 1.34 0 2.494-0.453 3.46-1.3592 0.998-0.9061 1.777-2.0466 2.338-3.4215 0.561-1.4061 0.842-2.8278 0.842-4.2651 0-0.9999-0.234-1.828-0.701-2.4841-0.437-0.6875-1.17-1.0312-2.198-1.0312-0.873 0-1.59 0.1562-2.151 0.4687s-0.967 0.5156-1.216 0.6093c-0.312 0.125-0.592 0.1406-0.842 0.0469-0.249-0.125-0.374-0.3437-0.374-0.6562 0-0.4374 0.171-0.8124 0.514-1.1249 0.375-0.3437 0.811-0.6405 1.31-0.8905 0.499-0.2812 0.919-0.5156 1.262-0.703 0.936-0.4687 1.855-0.9687 2.759-1.4999 0.904-0.5624 1.73-1.1405 2.479-1.7342 0.779-0.5936 1.387-1.2342 1.823-1.9216 0.468-0.7187 0.702-1.4686 0.702-2.2498 0-0.7811-0.234-1.4998-0.702-2.156-0.467-0.6562-1.153-0.9843-2.057-0.9843-1.216 0-2.26 0.4063-3.133 1.2187-0.842 0.8124-1.528 1.6248-2.058 2.4372-0.156 0.25-0.343 0.4374-0.561 0.5624-0.187 0.0938-0.327 0.1406-0.421 0.1406-0.218 0-0.452-0.1718-0.701-0.5155-0.218-0.375-0.327-0.7187-0.327-1.0312 0-0.2187 0.202-0.6405 0.607-1.2654 0.437-0.6562 1.076-1.3593 1.918-2.1092 0.873-0.7499 1.948-1.3905 3.226-1.9217 1.278-0.5311 2.759-0.7967 4.443-0.7967 1.496 0 2.727 0.2499 3.694 0.7499 0.997 0.4999 1.73 1.1405 2.198 1.9216 0.498 0.75 0.748 1.5467 0.748 2.3904 0 0.8749-0.281 1.7029-0.842 2.4841s-1.294 1.5155-2.198 2.2029c-0.873 0.6562-1.839 1.2499-2.899 1.781-1.029 0.5-2.026 0.9374-2.993 1.3124-0.124 0.0312-0.202 0.0937-0.234 0.1875 0 0.0625 0.063 0.0937 0.188 0.0937 1.122 0 2.197 0.25 3.226 0.7499 1.029 0.4687 1.855 1.1249 2.479 1.9686 0.654 0.8124 0.982 1.7498 0.982 2.8122 0 1.1873-0.375 2.3591-1.123 3.5152-0.717 1.1561-1.683 2.2498-2.899 3.2809-1.216 0.9999-2.572 1.9373-4.068 2.8122-1.434 0.8124-2.884 1.5154-4.349 2.1091s-2.931 0.8905-4.396 0.8905z"/>
    <path d="m139.82 38.793c-0.904 0-1.793-0.0781-2.665-0.2343-0.873-0.125-1.715-0.3594-2.526-0.7031-0.436-0.1562-0.795-0.2812-1.075-0.375-0.281-0.1249-0.468-0.1874-0.561-0.1874-0.156 0-0.328 0.0312-0.515 0.0937s-0.358 0.125-0.514 0.1875c-0.187 0.125-0.374 0.25-0.561 0.3749-0.156 0.0938-0.296 0.1407-0.421 0.1407-0.156 0-0.359-0.1094-0.608-0.3281-0.249-0.2188-0.374-0.4219-0.374-0.6093 0-0.2188 0.156-0.6718 0.468-1.3593 0.311-0.6874 0.639-1.5467 0.982-2.5778 0.374-1.0624 0.639-2.2029 0.795-3.4215 0.124-0.7499 0.436-1.1249 0.935-1.1249 0.312 0 0.499 0.1875 0.561 0.5625 0.093 0.3437 0.14 0.8905 0.14 1.6404 0 1.1249 0.187 2.1716 0.561 3.1403 0.406 0.9686 1.014 1.7498 1.824 2.3435 0.842 0.5624 1.917 0.8436 3.227 0.8436 1.933 0 3.538-0.5468 4.816-1.6404s1.917-2.5779 1.917-4.4527c0-0.7811-0.124-1.4998-0.374-2.156-0.249-0.6561-0.67-1.3436-1.262-2.0622-0.593-0.75-1.434-1.6249-2.525-2.6248-1.403-1.2811-2.557-2.5622-3.461-3.8433-0.873-1.3123-1.309-2.8747-1.309-4.687 0-1.6873 0.452-3.1871 1.356-4.4995 0.904-1.3123 2.12-2.3435 3.647-3.0934 1.559-0.78116 3.305-1.1718 5.238-1.1718 0.717 0 1.403 0.07812 2.057 0.23435 0.686 0.12499 1.325 0.2656 1.918 0.42183 0.623 0.18748 1.137 0.35934 1.543 0.51557 0.405 0.15623 0.748 0.23435 1.028 0.23435 0.375 0 0.702-0.07812 0.982-0.23435 0.156-0.09374 0.312-0.17185 0.468-0.23435 0.156-0.06249 0.312-0.09374 0.468-0.09374 0.28 0 0.452 0.10936 0.514 0.32809 0.062 0.18748 0.062 0.35934 0 0.51557-0.125 0.18748-0.327 0.54681-0.608 1.078-0.249 0.4999-0.53 1.203-0.842 2.1091-0.28 0.9062-0.545 2.0467-0.794 3.4215-0.063 0.4375-0.188 0.7812-0.375 1.0312-0.155 0.2187-0.327 0.3281-0.514 0.3281-0.218 0-0.39-0.125-0.514-0.375-0.094-0.25-0.141-0.6093-0.141-1.078 0-2.1248-0.498-3.7652-1.496-4.9213-0.998-1.1874-2.323-1.7811-3.975-1.7811-1.091 0-2.073 0.28122-2.946 0.84366-0.842 0.56244-1.512 1.2811-2.011 2.156-0.467 0.8436-0.701 1.7342-0.701 2.6716 0 0.7811 0.125 1.531 0.374 2.2497 0.281 0.6874 0.748 1.4217 1.403 2.2029 0.655 0.7499 1.543 1.6404 2.665 2.6716 1.684 1.4686 2.9 2.8278 3.648 4.0777 0.748 1.2186 1.122 2.5309 1.122 3.937 0 1.6561-0.421 3.2184-1.262 4.687-0.842 1.4373-2.089 2.6091-3.741 3.5152-1.621 0.8749-3.617 1.3124-5.986 1.3124z"/>
    <path d="m157 38.746c-0.312 0-0.655-0.125-1.029-0.3749-0.343-0.25-0.639-0.5312-0.888-0.8437-0.219-0.3437-0.328-0.6405-0.328-0.8905 0-0.4375 0.047-0.8124 0.141-1.1249 0.124-0.3437 0.28-0.7655 0.467-1.2655l4.443-12.28c0.093-0.3124 0.078-0.5155-0.047-0.6093-0.125-0.125-0.281-0.1875-0.468-0.1875l-1.964-0.0937c-0.467-0.0312-0.748-0.125-0.841-0.2812-0.094-0.1875-0.141-0.3437-0.141-0.4687 0-0.0625 0.078-0.1875 0.234-0.375 0.187-0.2187 0.421-0.4218 0.701-0.6093 0.281-0.2187 0.577-0.3281 0.889-0.3281h1.917c0.374 0 0.624-0.0625 0.748-0.1875 0.156-0.1249 0.328-0.3749 0.515-0.7499l1.169-2.4372c0.187-0.3125 0.452-0.6562 0.795-1.0311 0.374-0.375 0.764-0.6875 1.169-0.9374 0.405-0.2813 0.717-0.4219 0.935-0.4219 0.343 0 0.561 0.2031 0.655 0.6093 0.093 0.375 0.078 0.75-0.047 1.1249l-1.169 3.2809c-0.094 0.3125-0.094 0.5156 0 0.6093 0.125 0.0625 0.327 0.0938 0.608 0.0938 0.561 0 1.138 0.0468 1.73 0.1406 0.592 0.0937 1.122 0.1718 1.59 0.2343 0.561 0.0938 0.904 0.2031 1.029 0.3281 0.124 0.125 0.187 0.2812 0.187 0.4687 0 0.0625-0.078 0.1875-0.234 0.375-0.125 0.1562-0.39 0.2499-0.795 0.2812-0.592 0.0312-1.169 0.0781-1.73 0.1406-0.53 0.0312-1.122 0.0625-1.777 0.0937-0.53 0.0313-0.92 0.1094-1.169 0.2344-0.218 0.125-0.374 0.3124-0.468 0.5624l-3.928 10.874c-0.156 0.4687-0.234 0.8593-0.234 1.1718 0 0.2812 0.078 0.4843 0.234 0.6093s0.374 0.1875 0.655 0.1875c0.436 0 0.919-0.1719 1.449-0.5156s1.045-0.7343 1.544-1.1718c0.53-0.4687 0.966-0.8749 1.309-1.2186 0.249-0.2499 0.468-0.3593 0.655-0.3281 0.187 0 0.28 0.0625 0.28 0.1875 0.063 0.1562 0.047 0.3594-0.047 0.6093-0.062 0.2187-0.171 0.4531-0.327 0.7031-0.374 0.4999-0.826 1.0311-1.356 1.5935-0.53 0.5312-1.122 1.0624-1.777 1.5936-0.623 0.5-1.263 0.953-1.917 1.3592-0.655 0.375-1.278 0.6718-1.871 0.8906-0.561 0.2499-1.06 0.3749-1.496 0.3749z"/>
    <path d="m172.35 38.746c-0.468 0-0.92-0.2031-1.356-0.6093-0.406-0.3749-0.717-0.8124-0.936-1.3123-0.187-0.5312-0.202-0.9843-0.046-1.3593l4.723-11.155c0.218-0.4999 0.342-0.9218 0.374-1.2655 0.031-0.3437-0.078-0.5155-0.328-0.5155-0.156 0-0.436 0.1406-0.841 0.4218-0.406 0.25-0.842 0.5624-1.31 0.9374-0.467 0.3749-0.904 0.7499-1.309 1.1249-0.187 0.1562-0.39 0.2343-0.608 0.2343-0.187-0.0312-0.281-0.125-0.281-0.2812 0-0.1875 0.047-0.4062 0.141-0.6562 0.124-0.2812 0.296-0.578 0.514-0.8905 0.842-1.0936 1.746-2.0154 2.712-2.7653 0.967-0.7499 1.902-1.3436 2.806-1.7811 0.935-0.4374 1.715-0.6562 2.338-0.6562 0.25 0 0.515 0.1406 0.795 0.4219 0.312 0.2499 0.546 0.5468 0.702 0.8905 0.155 0.3437 0.155 0.6562 0 0.9374-0.873 1.8435-1.777 3.8121-2.713 5.9056-0.904 2.0623-1.839 4.187-2.805 6.3743-0.281 0.5937-0.437 1.1249-0.468 1.5936-0.031 0.4374 0.109 0.6561 0.421 0.6561s0.779-0.2812 1.403-0.8436c0.623-0.5937 1.325-1.3436 2.104-2.2498 0.779-0.9061 1.59-1.8591 2.432-2.859 0.997-1.1249 1.948-2.2966 2.852-3.5153 0.904-1.2186 1.699-2.3435 2.385-3.3746 0.717-1.0311 1.216-1.7967 1.496-2.2966 0.281-0.5 0.562-0.8749 0.842-1.1249 0.312-0.25 0.624-0.375 0.935-0.375 0.312 0 0.608 0.125 0.889 0.375 0.312 0.25 0.53 0.5468 0.654 0.8905 0.156 0.3125 0.172 0.6093 0.047 0.8906l-5.471 13.17c-0.218 0.4687-0.312 0.8436-0.281 1.1249 0.032 0.2812 0.172 0.4218 0.421 0.4218 0.343 0 0.826-0.2031 1.45-0.6093 0.655-0.4375 1.325-0.9374 2.011-1.4999 0.717-0.5624 1.294-1.0623 1.73-1.4998 0.062-0.0625 0.109-0.0937 0.14-0.0937 0.125 0 0.234 0.0625 0.328 0.1875 0.124 0.0937 0.187 0.2031 0.187 0.328 0 0.1875-0.094 0.4063-0.281 0.6562-0.156 0.2187-0.374 0.4687-0.655 0.7499-0.28 0.2813-0.592 0.5625-0.935 0.8437-0.312 0.25-0.639 0.4843-0.982 0.703-0.343 0.1875-0.655 0.3438-0.935 0.4687-0.53 0.5312-1.138 1.0156-1.824 1.453-0.655 0.4062-1.325 0.7031-2.011 0.8905-0.685 0.1875-1.387 0.2344-2.104 0.1406-0.28-0.0312-0.53-0.2656-0.748-0.703-0.218-0.4375-0.249-0.828-0.094-1.1718 0.374-0.8124 0.78-1.6873 1.216-2.6247 0.437-0.9374 0.842-1.8279 1.216-2.6715 0.374-0.8749 0.67-1.6092 0.888-2.2029 0.125-0.3437 0.094-0.5312-0.093-0.5625-0.156-0.0312-0.312 0.0469-0.468 0.2344-1.371 1.5936-2.634 3.0465-3.787 4.3589-1.123 1.2811-2.151 2.3747-3.087 3.2809-0.935 0.9061-1.777 1.6092-2.525 2.1091-0.717 0.5-1.34 0.7499-1.87 0.7499z"/>
    <path d="m196.45 38.746c-0.966 0-1.761-0.3281-2.385-0.9842-0.623-0.6875-0.935-1.5467-0.935-2.5779 0-1.1873 0.25-2.4841 0.748-3.8902 0.499-1.4373 1.169-2.8903 2.011-4.3589 0.873-1.4998 1.871-2.8903 2.993-4.1714 1.278-1.4686 2.541-2.5935 3.788-3.3746 1.278-0.8124 2.447-1.2186 3.507-1.2186 0.53 0 0.982 0.1093 1.356 0.3281 0.405 0.1874 0.998 0.5311 1.777 1.0311 0.499 0.3125 0.795 0.4999 0.888 0.5624 0.094 0.0313 0.125 0.0469 0.094 0.0469 0.125 0 0.218-0.125 0.281-0.375l2.805-9.3271c0.125-0.3749 0.203-0.65613 0.234-0.84361 0.062-0.18748 0.094-0.29685 0.094-0.32809 0.031-0.0625 0.031-0.10937 0-0.14061v-0.18748c0-0.31247-0.11-0.57806-0.328-0.79679-0.218-0.24997-0.608-0.4687-1.169-0.65618-0.592-0.24997-0.951-0.4062-1.075-0.4687-0.125-0.06249-0.187-0.1406-0.187-0.23434 0-0.21873 0.109-0.39059 0.327-0.51557 0.249-0.12499 0.655-0.24997 1.216-0.37496 0.436-0.09374 0.935-0.18748 1.496-0.28122 0.592-0.12499 1.154-0.21873 1.684-0.28122 0.561-0.09374 1.044-0.17186 1.449-0.23435 0.437-0.06249 0.733-0.09374 0.889-0.09374 0.498 0 0.748 0.21873 0.748 0.65618 0 0.21872-0.016 0.42183-0.047 0.60931s-0.109 0.43745-0.234 0.74991l-7.902 25.919c-0.032 0.2187-0.078 0.4218-0.141 0.6093-0.031 0.1875-0.047 0.3749-0.047 0.5624 0 0.5625 0.188 0.8437 0.562 0.8437 0.343 0 0.779-0.1406 1.309-0.4219 0.53-0.3124 1.075-0.703 1.637-1.1717 0.561-0.4999 1.044-1.0155 1.449-1.5467 0.094-0.0937 0.156-0.1406 0.187-0.1406 0.031-0.0313 0.078-0.0469 0.141-0.0469 0.311 0 0.436 0.1562 0.374 0.4687 0 0.375-0.187 0.8593-0.561 1.453-0.375 0.5624-0.873 1.1405-1.497 1.7342-0.592 0.5936-1.247 1.1561-1.964 1.6873-0.686 0.5312-1.372 0.953-2.057 1.2655-0.655 0.3437-1.216 0.5155-1.684 0.5155-0.374 0-0.748-0.1093-1.122-0.3281-0.374-0.2187-0.686-0.4999-0.935-0.8436-0.25-0.375-0.374-0.7499-0.374-1.1249 0-0.1562 0.062-0.5468 0.187-1.1717 0.093-0.3437 0.218-0.7656 0.374-1.2655 0.156-0.5 0.311-0.9843 0.467-1.453s0.265-0.8124 0.328-1.0311c0.062-0.2188 0.062-0.2031 0 0.0468 0.062-0.2187 0.046-0.3749-0.047-0.4687-0.094-0.0937-0.187-0.0624-0.281 0.0938-2.151 2.6872-4.037 4.6245-5.658 5.8118-1.621 1.1562-3.211 1.7342-4.77 1.7342zm2.525-3.0465c0.749 0 1.59-0.2812 2.526-0.8437 0.935-0.5937 1.855-1.3592 2.759-2.2966 0.904-0.9686 1.745-2.031 2.525-3.1871 0.779-1.1562 1.387-2.2967 1.823-3.4215 0.468-1.1562 0.702-2.2185 0.702-3.1872 0-0.8749-0.187-1.5623-0.561-2.0623-0.374-0.4999-0.92-0.7499-1.637-0.7499-0.655 0-1.418 0.3281-2.291 0.9843-0.842 0.6562-1.699 1.5154-2.572 2.5778-0.842 1.0624-1.637 2.2185-2.385 3.4684-0.717 1.2499-1.309 2.4997-1.777 3.7496-0.436 1.2498-0.655 2.3435-0.655 3.2809 0 0.6249 0.109 1.0624 0.328 1.3123 0.249 0.25 0.654 0.375 1.215 0.375z"/>
    <path d="m221.38 38.746c-0.592 0-1.107-0.2187-1.543-0.6561-0.437-0.4063-0.655-0.8281-0.655-1.2655 0-0.125 0.016-0.25 0.047-0.375 0.031-0.1562 0.078-0.3125 0.14-0.4687 1.154-2.3747 2.151-4.6401 2.993-6.7961 0.842-2.1873 1.606-4.1558 2.291-5.9056 0.125-0.3125 0.047-0.4687-0.233-0.4687-0.156 0-0.452 0.0781-0.889 0.2343-0.405 0.1563-0.842 0.375-1.309 0.6562-0.437 0.25-0.826 0.5-1.169 0.7499-0.25 0.1563-0.468 0.2031-0.655 0.1406-0.156-0.0937-0.234-0.2343-0.234-0.4218s0.141-0.4531 0.421-0.7968c0.312-0.3437 0.717-0.7343 1.216-1.1717 0.53-0.4375 1.122-0.8906 1.777-1.3593s1.325-0.9061 2.011-1.3123c0.717-0.4375 1.418-0.7968 2.104-1.078 0.343-0.1562 0.686-0.125 1.029 0.0937 0.374 0.1875 0.654 0.4531 0.841 0.7968 0.219 0.3125 0.281 0.5781 0.187 0.7968l-5.517 13.358c-0.094 0.1875-0.172 0.3906-0.234 0.6093-0.031 0.1875-0.047 0.3594-0.047 0.5156 0 0.1875 0.062 0.3124 0.187 0.3749 0.156 0.0625 0.296 0.0938 0.421 0.0938 0.374 0 0.842-0.1875 1.403-0.5625 0.592-0.4062 1.2-0.8905 1.823-1.4529 0.655-0.5937 1.247-1.1561 1.777-1.6873 0.063-0.0938 0.125-0.1406 0.187-0.1406 0.094 0 0.188 0.0468 0.281 0.1406 0.094 0.0625 0.14 0.1562 0.14 0.2812 0 0.4999-0.311 1.1561-0.935 1.9685-0.623 0.7812-1.403 1.5623-2.338 2.3435s-1.902 1.4374-2.899 1.9685c-0.967 0.5312-1.84 0.7968-2.619 0.7968zm9.119-24.56c-0.561 0-1.029-0.2031-1.403-0.6093-0.343-0.4374-0.515-0.9374-0.515-1.4998 0-0.8437 0.297-1.5936 0.889-2.2498 0.592-0.68742 1.325-1.0311 2.198-1.0311 0.592 0 1.044 0.24997 1.356 0.74992 0.343 0.49998 0.514 1.0312 0.514 1.5936 0 0.7812-0.296 1.4842-0.888 2.1091-0.593 0.625-1.31 0.9374-2.151 0.9374z"/>
    <path d="m237.52 38.746c-0.905 0-1.762-0.2499-2.572-0.7499-0.78-0.5312-1.419-1.2342-1.918-2.1091-0.467-0.9062-0.701-1.8748-0.701-2.906 0-1.4685 0.296-3.0465 0.888-4.7338 0.593-1.6873 1.434-3.2809 2.526-4.7807 1.091-1.4999 2.369-2.7185 3.834-3.6559 1.465-0.9686 3.071-1.453 4.817-1.453 1.745 0 3.117 0.5625 4.115 1.6874 0.997 1.0936 1.496 2.5153 1.496 4.2651 0 1.4061-0.296 2.9528-0.888 4.6401-0.562 1.6561-1.388 3.2341-2.479 4.7339-1.091 1.4686-2.4 2.6872-3.928 3.6558-1.527 0.9374-3.258 1.4061-5.19 1.4061zm0.794-1.5467c0.686 0 1.388-0.3281 2.105-0.9842 0.717-0.6875 1.403-1.578 2.057-2.6716 0.686-1.0937 1.278-2.2966 1.777-3.609 0.53-1.3124 0.951-2.6247 1.263-3.9371 0.312-1.3123 0.467-2.4997 0.467-3.5621 0-0.7811-0.14-1.3904-0.42-1.8279-0.25-0.4687-0.733-0.703-1.45-0.703-0.655 0-1.341 0.3124-2.058 0.9373-0.717 0.625-1.418 1.4686-2.104 2.531-0.655 1.0312-1.247 2.1873-1.777 3.4684-0.53 1.2499-0.951 2.5466-1.262 3.8902-0.312 1.3436-0.468 2.6247-0.468 3.8433 0 0.9062 0.156 1.578 0.468 2.0154 0.343 0.4062 0.81 0.6093 1.402 0.6093z"/>
  </g>
</svg>
