<?xml version="1.0" encoding="UTF-8"?>
<svg width="250" height="78.497" fill="none" version="1.1" viewBox="0 0 250 78.497" xmlns="http://www.w3.org/2000/svg">
    <title>Studio 903</title>
    <g>
        <path
            d="m186.88 34.666c-12.05-0.17636-22.056 9.544-22.233 21.593-0.17646 12.05 9.5418 22.057 21.591 22.233 12.05 0.17636 22.056-9.5418 22.233-21.591 0.17636-12.05-9.5418-22.059-21.591-22.235zm-0.12902 8.8188c7.2846 0.10664 13.01 6.0026 12.903 13.287-0.10665 7.2846-6.0027 13.009-13.287 12.902-7.2846-0.10664-13.01-6.0005-12.903-13.285 0.10655-7.2846 6.0026-13.01 13.287-12.903z"
        />
        <path
            d="m199.64 1.2334e-4c-5.3339 0.026248-10.697 1.7042-15.252 5.1514l6.2078 8.2033c6.7774-5.1295 16.275-3.815 21.405 2.9624 5.1225 6.7683 3.8179 16.25-2.9363 21.384-9e-3 0.0069-0.0179 0.01311-0.027 0.02006l6.2084 8.2032c6.7771-5.1296 16.275-3.8151 21.404 2.9624 5.1298 6.7774 3.8165 16.276-2.9622 21.405l6.2078 8.2023c11.211-8.4847 13.442-24.607 4.9572-35.816-5.0208-6.6342-12.717-10.124-20.486-10.108 2.1252-7.4734 0.85721-15.827-4.1638-22.462-5.0377-6.656-12.767-10.147-20.562-10.108z"
        />
        <path
            d="m148.01 1.3673c-11.797 0.12891-21.497 9.7311-21.67 21.592-0.17643 12.05 9.5422 22.057 21.591 22.233 0.86425 0.01273 1.717-0.02738 2.5574-0.11359l-17.25 28.896 7.5711 4.5212 26.214-43.905-0.0164-0.0089c1.9502-3.2154 3.0996-6.9672 3.1583-10.978 0.17636-12.05-9.5422-22.057-21.591-22.233-0.18842-0.00222-0.37702-0.00629-0.56428-0.00408zm0.0934 8.8166c0.11311-0.0011 0.22699-4.83e-4 0.34077 0.0012 7.2846 0.10664 13.01 6.0022 12.903 13.287-0.0356 2.43-0.71827 4.6842-1.8787 6.6083l-0.0187-0.01003-0.35445 0.59301c-2.3836 3.5147-6.4312 5.7799-11.037 5.7125-7.2846-0.10664-13.01-6.0023-12.903-13.287 0.10493-7.171 5.8205-12.832 12.948-12.905z"
        />
    </g>
    <g>
        <path
            d="m3.7945 51.797-3.881 2.5873q0.7762 2.113 2.2423 3.881 1.4661 1.768 3.536 2.8461 2.113 1.0349 4.7003 1.0349 2.8461 0 5.304-1.2505t4.0103-3.4066 1.6818-4.959q0.08624-2.3717-0.86244-3.9672-0.90556-1.6386-2.4148-2.7167-1.4661-1.078-3.191-1.7249-1.2505-0.51746-2.3286-1.0349-1.0349-0.56059-1.8111-1.1643-0.7762-0.64683-1.2074-1.3799-0.3881-0.7762-0.34498-1.6386 0.043122-1.0349 0.56059-1.8542 0.51746-0.81932 1.4661-1.2937 0.99181-0.47434 2.3717-0.47434 1.6386 0 2.7167 0.60371 1.1212 0.60371 1.8111 1.5955 0.73307 0.94868 1.2505 2.0267l4.1828-2.1992q-0.68995-1.7249-1.9405-3.191-1.2505-1.5093-3.1048-2.4148t-4.3984-0.90556q-2.8461-0.04312-5.0884 1.078-2.2423 1.078-3.5791 3.0185-1.3368 1.8974-1.4661 4.3122-0.043122 1.8111 0.56059 3.191 0.64683 1.3368 1.6818 2.3286 1.0349 0.99181 2.1992 1.6818 1.1643 0.68995 2.2423 1.1643 1.5524 0.68995 2.8029 1.3368 1.2505 0.64683 1.9405 1.5524 0.73307 0.90556 0.68995 2.4148-0.04312 1.2074-0.73307 2.2855-0.68995 1.078-1.9405 1.7249-1.2074 0.64683-2.8029 0.64683-1.7249 0-2.9754-0.73307-1.2505-0.73307-2.1992-2.0267-0.90556-1.2937-1.6818-2.9754z"
        />
        <path
            d="m25.054 41.663-0.73307 4.0966h11.039l0.68995-4.0966zm4.3122-6.8995-4.4847 26.736h4.4416l4.6572-26.736z"
        />
        <path
            d="m41.613 53.737 2.113-12.074h-4.6572l-2.1992 12.592q-0.30185 2.0699 0.17249 3.8379 0.47434 1.7249 1.8111 2.7598t3.5791 1.0349q2.0267 0 3.536-0.86244 1.5524-0.90556 2.5873-2.458l-0.47434 2.9323h4.6572l3.4066-19.836h-4.6141l-2.1561 12.247q-0.21561 1.2074-0.94868 2.1992-0.68995 0.94868-1.768 1.5093-1.0349 0.51746-2.3286 0.51746t-1.9405-0.60371q-0.60371-0.64683-0.7762-1.6386-0.12937-1.0349 0-2.1561z"
        />
        <path
            d="m78.611 27.864-5.649 33.635h4.5278l5.8215-33.635zm-19.965 23.717q-0.3881 2.8029 0.47434 5.1746 0.86244 2.3286 2.7167 3.7516 1.8974 1.3799 4.6572 1.3799 1.9836 0 3.6222-0.7762 1.6818-0.81932 2.9323-2.2423 1.2937-1.423 2.113-3.2773 0.86244-1.8974 1.1212-4.0103 0.25873-2.0267 0-3.8379-0.21561-1.8542-1.0349-3.3204t-2.1992-2.3286q-1.3368-0.86244-3.3635-0.86244-2.7167-0.04312-5.0884 1.3368-2.3717 1.3799-3.9672 3.7516-1.5524 2.3286-1.9836 5.2609zm4.7434 0q0.30185-1.768 1.2937-3.2342 1.0349-1.4661 2.5011-2.2855 1.5093-0.81932 3.191-0.7762 1.1643 0.04312 1.9836 0.56059 0.86244 0.51746 1.423 1.3799 0.60371 0.86244 0.81932 1.9836t0.04312 2.3717q-0.21561 1.2937-0.86244 2.458-0.64683 1.1212-1.5955 1.9836-0.90556 0.86244-2.0267 1.3799-1.078 0.47434-2.1992 0.43122-1.6818 0-2.8029-0.86244-1.078-0.86244-1.5524-2.2855-0.43122-1.4661-0.21561-3.1048z"
        />
        <path
            d="m87.624 33.772q0 1.1643 0.81932 1.9836 0.86244 0.81932 2.0699 0.81932t2.0699-0.81932 0.86244-1.9836q0-1.2074-0.86244-2.0267t-2.0699-0.81932-2.0699 0.81932q-0.81932 0.81932-0.81932 2.0267zm-0.7762 7.8913-3.2773 19.836h4.5278l3.3635-19.836z"
        />
        <path
            d="m94.739 51.581q-0.3881 2.8461 0.64683 5.2178 1.0349 2.3286 3.191 3.7085 2.1561 1.3799 5.0884 1.3799 3.0185 0 5.5627-1.3368 2.5442-1.3799 4.226-3.7085 1.6818-2.3286 2.0699-5.2609 0.3881-2.8461-0.64683-5.1746-1.0349-2.3717-3.191-3.7516-2.113-1.423-5.0884-1.423-3.0185 0-5.6059 1.3799-2.5442 1.3368-4.226 3.6654-1.6386 2.3286-2.0267 5.304zm4.6572 0q0.25873-1.7249 1.2074-3.1479 0.9918-1.423 2.458-2.2855t3.1479-0.81932q1.6818 0 2.8029 0.90556t1.5955 2.3286q0.47434 1.3799 0.25873 3.0185-0.25873 1.6818-1.2505 3.1479-0.94869 1.423-2.4148 2.2423-1.4661 0.81932-3.191 0.81932-1.6818 0-2.8029-0.86244-1.078-0.90556-1.5524-2.3286-0.47434-1.423-0.25873-3.0185z"
        />
    </g>
</svg>
