<svg
  width="250"
  height="81.408"
  version="1.1"
  viewBox="0 0 66.15 21.538"
  xmlns="http://www.w3.org/2000/svg"
>
  <g>
    <path
      d="m16.614 9.511c-3.3066-0.048393-6.0526 2.619-6.1011 5.9256-0.04841 3.3066 2.6184 6.0526 5.925 6.1011 3.3066 0.04839 6.0526-2.6184 6.1011-5.925 0.04839-3.3066-2.6184-6.0532-5.925-6.1016zm-0.0354 2.42c1.999 0.02927 3.5703 1.6472 3.541 3.6463-0.02926 1.999-1.6472 3.5697-3.6463 3.5404-1.999-0.02927-3.5703-1.6466-3.541-3.6457 0.02924-1.999 1.6472-3.5703 3.6463-3.541z"
    />
    <path
      d="m20.114-0.0018792c-1.4637 0.0072026-2.9356 0.46766-4.1854 1.4136l1.7035 2.2511c1.8598-1.4076 4.4662-1.0469 5.8738 0.81293 1.4057 1.8573 1.0477 4.4593-0.80577 5.8681-0.0024 0.0019-0.0049 0.0036-0.0074 0.0055l1.6e-4 1.6e-4 1.7035 2.2509c1.8597-1.4076 4.466-1.0469 5.8736 0.81293 1.4076 1.8598 1.0471 4.4664-0.8128 5.8739l1.7035 2.2508c3.0763-2.3283 3.6886-6.7527 1.3603-9.8284-1.3779-1.8205-3.4898-2.778-5.6218-2.7738 0.58313-2.0508 0.2353-4.3432-1.1426-6.1639-1.3824-1.8265-3.5036-2.7844-5.6428-2.7739z"
    />
    <path
      d="m5.9471 0.37328c-3.2371 0.035375-5.8989 2.6703-5.9465 5.9252-0.048415 3.3066 2.6185 6.0526 5.925 6.1011 0.23714 0.0035 0.47117-0.0075 0.70177-0.03117l-4.7337 7.9294 2.0776 1.2407 7.1935-12.048-0.0045-0.00241c0.53516-0.88235 0.85058-1.9119 0.86667-3.0126 0.048412-3.3066-2.6185-6.0526-5.925-6.1011-0.051688-6.089e-4 -0.10319-9.1172e-4 -0.15457-3.0477e-4zm0.025652 2.4194c0.031038-3.048e-4 0.062271-1.452e-4 0.093497 3.048e-4 1.999 0.029273 3.5703 1.6471 3.541 3.6461-0.00975 0.6668-0.1971 1.2854-0.51554 1.8134l-0.00514-0.00274-0.097255 0.16271c-0.6541 0.96448-1.7648 1.5861-3.0286 1.5676-1.999-0.029273-3.5703-1.6471-3.541-3.6461 0.028792-1.9678 1.597-3.5212 3.5528-3.5413z"
    />
  </g>
  <g>
    <path
      d="m43.018 2.4871q-0.1065 0.2769-0.28756 0.80941-0.1704 0.52186-0.3408 1.3632h-0.213q0.03195-0.1491 0.0426-0.30885 0.0213-0.15975 0.0213-0.2982 0-0.39405-0.15975-0.71355-0.1491-0.33015-0.47925-0.52186-0.33015-0.20235-0.8733-0.20235-0.63901 0-1.065 0.33015-0.426 0.33015-0.426 1.0224 0 0.4047 0.1917 0.75614 0.20235 0.34081 0.50056 0.66028 0.30885 0.30885 0.64965 0.62835 0.35145 0.30885 0.64965 0.63901 0.30885 0.33015 0.50056 0.70287 0.20235 0.36211 0.20235 0.80941 0 0.5538-0.24495 0.94787-0.24495 0.39407-0.63901 0.64965-0.39405 0.24495-0.8733 0.36211-0.46861 0.1278-0.93718 0.1278-0.426 0-0.71355-0.08519-0.28756-0.07455-0.47925-0.1917-0.1917-0.11716-0.31951-0.213-0.11716-0.095854-0.22365-0.1278-0.09586-0.031949-0.15975-0.031949-0.13846 0-0.23431 0.1491-0.08519 0.13846-0.20235 0.426h-0.213q0.095855-0.2343 0.20235-0.54316 0.1065-0.30885 0.23431-0.78812 0.1278-0.48991 0.28756-1.2248h0.213q-0.0426 0.22365-0.07455 0.43666-0.03195 0.20235-0.0213 0.426 0.03195 0.72423 0.4473 1.1395 0.41536 0.41535 1.2887 0.41535 0.69226 0 1.1288-0.31951 0.43658-0.31951 0.43666-1.0118 0-0.4473-0.18105-0.79873-0.17041-0.35145-0.45796-0.64965-0.2769-0.30885-0.5964-0.5964-0.30885-0.28756-0.5964-0.5964-0.2769-0.31951-0.45795-0.70287-0.1704-0.38341-0.1704-0.8733 0-0.51121 0.20235-0.89459 0.20235-0.39405 0.53251-0.64965 0.3408-0.26626 0.75614-0.39405 0.41535-0.13846 0.852-0.13846 0.4473 0 0.76682 0.1065 0.31951 0.1065 0.6177 0.34081 0.1278 0.095854 0.213 0.1491 0.08521 0.042603 0.13846 0.042603 0.1491 0 0.35145-0.56445z"
    />
    <path
      d="m46.777 4.6284-0.03195 0.213h-3.3122l0.05325-0.213zm-2.7051 4.5689q-0.09585 0.35145 0.0426 0.51121 0.1491 0.1491 0.3834 0.1491 0.23431 0 0.46861-0.20235 0.24495-0.20235 0.47925-0.86268l0.1491-0.41535h0.20235l-0.22365 0.67096q-0.23431 0.69226-0.60705 0.94787-0.36211 0.2556-0.852 0.2556-0.43666 0-0.67096-0.18105-0.22365-0.1917-0.26626-0.53251-0.0426-0.3408 0.08521-0.77744l1.6508-5.751q0.2556-0.010646 0.50056-0.042603 0.2556-0.031947 0.45795-0.1065z"
    />
    <path
      d="m50.589 6.4174q-0.3834 1.065-0.73485 1.7998-0.35146 0.73485-0.70287 1.1822-0.3408 0.4473-0.70287 0.64965-0.35145 0.20235-0.73485 0.20235-0.46861 0-0.68158-0.213-0.213-0.213-0.213-0.5751 0-0.3621 0.1491-0.82003l1.0331-3.1098q0.1065-0.31951 0.07455-0.48991-0.03195-0.1704-0.24495-0.1704-0.20235 0-0.4047 0.22365-0.1917 0.22365-0.41535 0.86268l-0.13846 0.39405h-0.20235l0.26626-0.77744q0.15975-0.4473 0.37275-0.68164 0.22365-0.2343 0.45795-0.31951 0.24495-0.095855 0.45794-0.095855 0.46861 0 0.6177 0.22365 0.15975 0.213 0.11716 0.5538-0.03195 0.34081-0.15975 0.71355l-1.0118 3.0459q-0.2982 0.89459 0.23431 0.89459 0.2556 0 0.54315-0.22365 0.28756-0.2343 0.58576-0.66028 0.2982-0.43666 0.58576-1.0331 0.2982-0.60705 0.56446-1.3419 0.2769-0.74553 0.50055-1.5975zm-0.03195 2.7796q-0.07455 0.28756-0.07455 0.47925 0.01065 0.18105 0.22365 0.18105 0.2343 0 0.426-0.24495 0.20235-0.2556 0.4047-0.84139l0.13845-0.39405h0.20235l-0.26626 0.77744q-0.1491 0.4473-0.37275 0.68164-0.213 0.2343-0.45795 0.31951-0.23431 0.09585-0.45795 0.09585-0.1704 0-0.31951-0.07455-0.1491-0.07455-0.22365-0.213-0.08521-0.18105-0.06391-0.45795 0.03195-0.2769 0.1491-0.74553l1.0437-4.1322q0.26626-0.010646 0.51121-0.042603 0.2556-0.031947 0.45795-0.1065z"
    />
    <path
      d="m56.33 9.1964q-0.07455 0.24495-0.0639 0.45795 0.0213 0.20235 0.2556 0.20235 0.213 0 0.39405-0.2343 0.18105-0.24495 0.3834-0.852l0.1278-0.39405h0.20235l-0.24495 0.77744q-0.1278 0.426-0.3408 0.67096-0.213 0.23431-0.4473 0.33015-0.2343 0.09586-0.4473 0.09586-0.63901 0-0.67096-0.60705-0.01065-0.1704 0.0213-0.39405 0.0426-0.22365 0.11716-0.48991l1.5336-5.7617q0.095848-0.36211-0.031949-0.53251-0.1278-0.1704-0.64965-0.1704l0.0639-0.22365q0.58576-0.010646 1.0331-0.11716 0.4473-0.11716 0.852-0.31951zm-2.3857 0.71355q0.26626 0 0.5964-0.30885 0.3408-0.31951 0.68164-0.852 0.35145-0.54315 0.63901-1.2248 0.2982-0.69226 0.46861-1.4271l-0.15975 1.1502q-0.41535 1.097-0.83071 1.7573-0.4047 0.66028-0.83071 0.95848-0.41535 0.28756-0.8733 0.28756-0.33015 0-0.58576-0.1491-0.24495-0.15975-0.3834-0.46861-0.13845-0.30886-0.13846-0.78812 0-0.51121 0.15975-1.097 0.1704-0.5964 0.47925-1.1716 0.30885-0.57513 0.73485-1.0437 0.43666-0.47925 0.95848-0.76682 0.52182-0.28757 1.1076-0.28756 0.24495 0 0.45795 0.1917 0.213 0.18105 0.2343 0.5538l-0.0852 0.213q-0.042604-0.38341-0.213-0.54315-0.1704-0.1704-0.3834-0.1704-0.4047 0-0.78812 0.2769-0.37275 0.2769-0.68164 0.73485-0.30886 0.45795-0.54315 1.0224-0.23431 0.5538-0.36211 1.1395-0.1278 0.5751-0.1278 1.0863 0 0.46861 0.11716 0.70287 0.11716 0.22365 0.35145 0.22365z"
    />
    <path
      d="m60.185 2.6894q0.05325-0.2769 0.2769-0.47925 0.2343-0.20235 0.50055-0.20235 0.2769 0 0.426 0.20235 0.15975 0.20235 0.1065 0.47925-0.05325 0.2769-0.28756 0.47925-0.22365 0.20235-0.50056 0.20235-0.26626 0-0.426-0.20235-0.1491-0.20235-0.095848-0.47925zm-0.33015 2.8436q0.22365-0.66028-0.1491-0.66028-0.24495 0-0.43666 0.26626t-0.4047 0.82003l-0.1491 0.39405h-0.20235l0.2769-0.77744q0.15975-0.4473 0.3834-0.68164 0.22365-0.2343 0.4686-0.31951 0.2556-0.095855 0.46861-0.095855 0.3408 0 0.50056 0.13846 0.15975 0.13846 0.1917 0.36211 0.03195 0.22365-0.0213 0.48991-0.05325 0.2556-0.13846 0.50055l-1.1395 3.2269q-0.1065 0.30885-0.07455 0.48991 0.0426 0.1704 0.24495 0.1704 0.213 0 0.4047-0.2343 0.1917-0.23431 0.426-0.852l0.14909-0.39405h0.20235l-0.2769 0.77744q-0.1491 0.41535-0.36211 0.66028-0.213 0.23431-0.45794 0.33015-0.24495 0.1065-0.48991 0.1065-0.45795 0-0.6177-0.213-0.15976-0.213-0.11716-0.5538 0.0426-0.34081 0.18105-0.72423z"
    />
    <path
      d="m64.627 4.6917q-0.34081 0-0.66028 0.2769-0.30884 0.26626-0.5751 0.73485-0.2556 0.45795-0.45795 1.0331-0.1917 0.5751-0.2982 1.1928-0.1065 0.6177-0.1065 1.1822 0 0.47925 0.1491 0.70287 0.15975 0.22365 0.45795 0.22365 0.3408 0 0.64965-0.26626 0.31951-0.2769 0.58576-0.73485 0.26626-0.46861 0.45795-1.0437 0.1917-0.5751 0.2982-1.1822 0.1065-0.6177 0.1065-1.1928 0-0.48991-0.14911-0.70287-0.1491-0.22365-0.45794-0.22365zm-3.014 3.8873q0-0.46861 0.1278-1.0224 0.1278-0.5538 0.3834-1.097 0.2556-0.54315 0.6177-0.99046 0.37275-0.4473 0.86268-0.71355 0.48991-0.2769 1.0863-0.2769 0.66028 0 1.0543 0.41535 0.4047 0.4047 0.4047 1.2567 0 0.46861-0.1278 1.0224-0.1278 0.5538-0.3834 1.097-0.25559 0.54315-0.62835 0.99046-0.3621 0.4473-0.852 0.72423-0.48991 0.26626-1.0863 0.26626-0.66028 0-1.065-0.41535-0.39405-0.41535-0.39405-1.2567z"
    />
  </g>
  <g>
    <path
      d="m48.616 11.987q0.99521 0 1.5228 0.53958 0.53958 0.52759 0.53958 1.6667 0 1.0192-0.40769 1.9306-0.40769 0.91133-1.0792 1.6907-0.67148 0.76741-1.4869 1.3549-0.80336 0.58755-1.6188 0.95926-0.81534 0.37171-1.4988 0.47962l-0.07195-0.23982q0.61153-0.16787 1.2471-0.57556 0.63551-0.39569 1.199-1.0072 0.56356-0.61153 1.0072-1.4029 0.45565-0.79138 0.70743-1.7387 0.2638-0.94728 0.2638-2.0145 0-0.83937-0.16787-1.1152-0.15588-0.28777-0.45565-0.28777-0.40769 0-0.74344 0.35973-0.33574 0.35973-0.58755 0.92331-0.23982 0.55158-0.37171 1.1631-0.1199 0.59954-0.1199 1.1152 0 0.57556 0.16787 0.81534 0.16787 0.23981 0.41968 0.23982 0.27579 0 0.57556-0.27579 0.29977-0.27579 0.5156-0.95926l0.20384 0.05995q-0.19185 0.6475-0.49163 1.0312-0.29977 0.3837-0.68347 0.55158-0.37171 0.15588-0.79137 0.15588-0.71948 0-1.211-0.45565-0.47962-0.45565-0.47962-1.355 0-0.70743 0.29977-1.3549 0.31176-0.6475 0.85135-1.1511 0.53958-0.5156 1.2351-0.80336 0.70743-0.29977 1.5108-0.29977z"
    />
    <path
      d="m55.702 11.987q1.1152 0 1.7387 0.58755 0.62351 0.57556 0.62351 1.5947 0 0.80336-0.33574 1.5827-0.33574 0.77939-0.92331 1.4029-0.58755 0.62351-1.3669 0.99521-0.76741 0.37171-1.6308 0.37171-1.0911 0-1.7387-0.57556-0.6475-0.57556-0.6475-1.6188 0-0.81534 0.33574-1.5827 0.34772-0.76741 0.9353-1.391 0.59954-0.63551 1.3669-0.99521 0.77939-0.37171 1.6427-0.37171zm-0.19185 0.21584q-0.50361 0-0.9353 0.3837-0.43166 0.37171-0.75543 1.0072-0.31176 0.63551-0.47963 1.4149-0.16787 0.77939-0.16787 1.5588 0 0.9353 0.23982 1.3429 0.23982 0.39569 0.58755 0.39569 0.52759 0 0.94728-0.39569 0.41968-0.39569 0.71948-1.0432 0.31176-0.6475 0.47963-1.4268 0.16787-0.77939 0.16787-1.5348 0-0.92331-0.22782-1.307-0.22782-0.39569-0.57556-0.39569z"
    />
    <path
      d="m62.146 11.974q0.89928 0 1.4268 0.32375 0.52759 0.32375 0.52759 0.87532 0 0.41968-0.26379 0.77939-0.2518 0.34772-0.67148 0.63551-0.40769 0.27579-0.89928 0.46764-0.47963 0.19185-0.9353 0.29977 0.6475 0.01199 1.1631 0.16787 0.51559 0.14389 0.81534 0.46764 0.29977 0.32375 0.29977 0.83937 0 0.61153-0.40769 1.1391-0.39569 0.5156-1.0672 0.91133-0.67148 0.40769-1.4988 0.68347-0.81534 0.28777-1.6667 0.43168-0.83937 0.15588-1.5828 0.16787l0.05995-0.21584q0.70743-0.04796 1.4749-0.27579 0.76741-0.22782 1.4389-0.6475 0.67148-0.40769 1.0792-0.99521 0.40769-0.59954 0.40769-1.391 0-0.47962-0.19185-0.76741-0.17986-0.29977-0.53958-0.32375-0.19185 0.08394-0.37171 0.14389-0.16787 0.05995-0.32375 0.05995-0.09593 0-0.16787-0.03597-0.07195-0.03597-0.03597-0.14389 0.03597-0.16787 0.26379-0.20384 0.22782-0.03597 0.53958-0.01198 0.41968-0.16787 0.74344-0.44366 0.33574-0.28777 0.53958-0.6475 0.20384-0.37171 0.20384-0.80336 0-0.50361-0.29977-0.79137-0.28778-0.28777-0.81534-0.28777-0.32375 0-0.64749 0.1199-0.31176 0.1199-0.57556 0.32375-0.2518 0.20384-0.41968 0.46764-0.15588 0.2518-0.15588 0.5156 0 0.28777 0.15588 0.43167 0.16787 0.14389 0.53958 0.14389 0.40768 0 0.74344-0.17986l0.1319 0.17986q-0.2518 0.1319-0.50361 0.19185-0.23982 0.05995-0.45564 0.05995-0.19185 0-0.40769-0.05995-0.20384-0.07195-0.34772-0.23982-0.14389-0.17986-0.14389-0.5156 0-0.44366 0.37171-0.86334 0.3837-0.41968 1.0312-0.69545 0.6475-0.28777 1.4389-0.28777z"
    />
  </g>
</svg>
