<?xml version="1.0" encoding="UTF-8"?>
<svg
  width="1200"
  height="630"
  version="1.1"
  viewBox="0 0 1200 630"
  xmlns="http://www.w3.org/2000/svg"
>
  <rect width="1200" height="630" fill="#fff5eb" />
  <path
    d="m351.16 287.99c-49.985-0.73154-91.497 39.591-92.23 89.576-0.73182 49.984 39.584 91.496 89.569 92.229 49.985 0.73151 91.497-39.584 92.23-89.568 0.73152-49.984-39.584-91.507-89.569-92.236zm-0.53514 36.583c30.219 0.44248 53.972 24.901 53.53 55.12-0.44232 30.219-24.901 53.964-55.121 53.522-30.219-0.44248-53.972-24.892-53.53-55.113 0.44202-30.219 24.901-53.971 55.121-53.529z"
    fill="#fb9db6"
  />
  <path
    d="m404.08 144.18c-22.127 0.10888-44.376 7.0694-63.273 21.369l25.752 34.03c28.115-21.279 67.517-15.826 88.794 12.289 21.25 28.077 15.838 67.41-12.181 88.706-0.0378 0.0288-0.0741 0.0544-0.11187 0.0832l2e-3 2e-3 25.752 34.027c28.113-21.279 67.513-15.826 88.791 12.289 21.279 28.115 15.829 67.52-12.287 88.797l25.752 34.025c46.504-35.197 55.76-102.08 20.564-148.58-20.83-27.52-52.755-41.995-84.985-41.931 8.8152-31.002 3.5571-65.657-17.273-93.181-20.898-27.611-52.963-42.093-85.302-41.934z"
    fill="#fb9db6"
  />
  <path
    d="m189.9 149.85c-48.934 0.53476-89.176 40.366-89.894 89.572-0.7319 49.984 39.584 91.496 89.569 92.229 3.5849 0.0529 7.1228-0.11337 10.609-0.47119l-71.561 119.87 31.407 18.756 108.75-182.13-0.068-0.0363c8.09-13.338 12.858-28.902 13.102-45.54 0.73186-49.984-39.584-91.496-89.569-92.229-0.78137-9e-3 -1.5599-0.0136-2.3367-5e-3zm0.3878 36.574c0.46919-5e-3 0.94134-2e-3 1.4134 5e-3 30.219 0.4425 53.972 24.899 53.53 55.116-0.14739 10.08-2.9796 19.431-7.7936 27.413l-0.0777-0.0414-1.4702 2.4597c-9.8881 14.58-26.679 23.977-45.782 23.697-30.219-0.44252-53.972-24.899-53.53-55.116 0.43526-29.747 24.142-53.231 53.707-53.533z"
    fill="#fb9db6"
  />
  <path
    d="m750.3 181.8q-1.61 4.1859-4.3469 12.236-2.576 7.8888-5.1519 20.607h-3.22q0.48299-2.254 0.64399-4.6689 0.32199-2.4149 0.32199-4.5079 0-5.9568-2.415-10.787-2.254-4.9909-7.2449-7.8888-4.9909-3.0589-13.202-3.0589-9.6599 0-16.1 4.9909t-6.4399 15.456q0 6.1178 2.898 11.431 3.059 5.1519 7.5669 9.9814 4.6689 4.6689 9.8209 9.4988 5.3129 4.6689 9.8209 9.6598 4.6689 4.9909 7.5669 10.625 3.059 5.4738 3.059 12.236 0 8.3718-3.703 14.329t-9.6599 9.8207q-5.9569 3.7029-13.202 5.4739-7.0839 1.9319-14.167 1.9319-6.4399 0-10.787-1.2878-4.3469-1.127-7.2449-2.8979-2.898-1.7711-4.8299-3.2199-1.7711-1.449-3.381-1.932-1.4491-0.48299-2.415-0.48299-2.0931 0-3.5421 2.254-1.2878 2.0931-3.059 6.4398h-3.22q1.4491-3.5419 3.059-8.2108 1.61-4.6689 3.5421-11.914 1.932-7.4058 4.3469-18.515h3.22q-0.64399 3.3809-1.127 6.6008-0.483 3.0589-0.322 6.4398 0.48299 10.948 6.7619 17.226 6.2789 6.2788 19.481 6.2788 10.465 0 17.064-4.8299 6.5998-4.8299 6.6009-15.295 0-6.7618-2.737-12.074-2.5761-5.3129-6.9229-9.8207-4.1859-4.6689-9.0159-9.0158-4.6689-4.3469-9.0159-9.0158-4.1859-4.8299-6.9229-10.625-2.576-5.7958-2.576-13.202 0-7.7278 3.059-13.524 3.059-5.9568 8.0499-9.8208 5.1519-4.0249 11.431-5.9568 6.2789-2.0931 12.88-2.0931 6.7619 0 11.592 1.61 4.8299 1.61 9.3379 5.1519 1.932 1.449 3.22 2.2539 1.2881 0.64402 2.0931 0.64402 2.254 0 5.3129-8.5328z"
    fill="#fb9dbf"
  />
  <path
    d="m807.14 214.18-0.48299 3.2199h-50.072l0.80499-3.2199zm-40.892 69.069q-1.449 5.3129 0.64399 7.7278 2.254 2.2539 5.7959 2.2539 3.5421 0 7.0839-3.0589 3.703-3.0589 7.2449-13.041l2.254-6.2788h3.059l-3.381 10.143q-3.5421 10.465-9.1769 14.329-5.4739 3.8639-12.88 3.8639-6.6009 0-10.143-2.7369-3.381-2.8979-4.0249-8.0498-0.64399-5.1519 1.2881-11.753l24.955-86.938q3.8639-0.16093 7.5669-0.64403 3.864-0.48294 6.9229-1.61z"
    fill="#fb9dbf"
  />
  <path
    d="m864.78 241.22q-5.7959 16.1-11.109 27.208-5.3129 11.109-10.625 17.871-5.1519 6.7618-10.625 9.8207-5.3129 3.0589-11.109 3.0589-7.0839 0-10.303-3.2199-3.22-3.2199-3.22-8.6938t2.254-12.396l15.618-47.01q1.61-4.8299 1.127-7.4058-0.48299-2.5759-3.7029-2.5759-3.059 0-6.1179 3.3809-2.898 3.3809-6.2789 13.041l-2.0931 5.9568h-3.059l4.0249-11.753q2.415-6.7618 5.6349-10.304 3.381-3.5419 6.9229-4.8299 3.703-1.449 6.9229-1.449 7.0839 0 9.3379 3.3809 2.415 3.2199 1.7711 8.3718-0.483 5.1519-2.415 10.787l-15.296 46.046q-4.5079 13.524 3.5421 13.524 3.864 0 8.2109-3.3809 4.3469-3.5419 8.8549-9.9814 4.5079-6.6008 8.8549-15.617 4.5079-9.1768 8.5329-20.285 4.1859-11.27 7.5669-24.149zm-0.48299 42.018q-1.127 4.3469-1.127 7.2448 0.161 2.7369 3.381 2.7369 3.542 0 6.4399-3.7029 3.059-3.8639 6.1179-12.719l2.093-5.9568h3.059l-4.025 11.753q-2.254 6.7618-5.6349 10.304-3.22 3.5419-6.9229 4.8299-3.5421 1.449-6.9229 1.449-2.576 0-4.8299-1.127-2.254-1.127-3.381-3.2199-1.2881-2.7369-0.96614-6.9228 0.483-4.1859 2.254-11.27l15.778-62.467q4.0249-0.16091 7.7279-0.64402 3.864-0.48295 6.9229-1.61z"
    fill="#fb9dbf"
  />
  <path
    d="m951.55 283.23q-1.127 3.7029-0.96599 6.9228 0.322 3.0589 3.864 3.0589 3.22 0 5.9569-3.5419 2.737-3.7029 5.7959-12.88l1.932-5.9568h3.059l-3.7029 11.753q-1.932 6.4398-5.1519 10.143-3.22 3.542-6.7619 4.9909-3.542 1.4491-6.7619 1.4491-9.6599 0-10.143-9.1768-0.161-2.5759 0.322-5.9568 0.64399-3.3809 1.7711-7.4058l23.184-87.1q1.449-5.4739-0.483-8.0498t-9.8209-2.5759l0.96599-3.3809q8.8549-0.16091 15.618-1.7711 6.7619-1.7711 12.88-4.8299zm-36.065 10.787q4.025 0 9.0159-4.6689 5.1519-4.8299 10.305-12.88 5.3129-8.2108 9.6599-18.515 4.5079-10.465 7.0839-21.573l-2.415 17.388q-6.2789 16.583-12.558 26.565-6.1179 9.9814-12.558 14.489-6.2789 4.3469-13.202 4.3469-4.9909 0-8.8549-2.2539-3.703-2.4149-5.7959-7.0838t-2.0931-11.914q0-7.7278 2.415-16.583 2.576-9.0158 7.2449-17.711 4.6689-8.6942 11.109-15.778 6.6009-7.2448 14.489-11.592 7.8885-4.3473 16.744-4.3469 3.703 0 6.9229 2.8979 3.22 2.7369 3.542 8.3718l-1.288 3.2199q-0.64399-5.7958-3.22-8.2108-2.576-2.5759-5.7959-2.5759-6.1179 0-11.914 4.1859-5.6349 4.1859-10.305 11.109-4.6689 6.9228-8.2109 15.456-3.5421 8.3718-5.4739 17.226-1.932 8.6938-1.932 16.422 0 7.0838 1.7711 10.625 1.7711 3.3809 5.3129 3.3809z"
    fill="#fb9dbf"
  />
  <path
    d="m1009.8 184.87q0.8049-4.1859 4.1859-7.2448 3.5419-3.0589 7.5669-3.0589 4.1859 0 6.4399 3.0589 2.415 3.0589 1.61 7.2448t-4.347 7.2448q-3.3809 3.0589-7.5669 3.0589-4.0249 0-6.4399-3.0589-2.2539-3.0589-1.4489-7.2448zm-4.991 42.985q3.381-9.9814-2.2539-9.9814-3.703 0-6.601 4.0249t-6.1179 12.396l-2.254 5.9568h-3.059l4.1859-11.753q2.415-6.7618 5.7959-10.304 3.381-3.5419 7.0839-4.8299 3.8639-1.449 7.0839-1.449 5.1519 0 7.5669 2.0931 2.4149 2.0931 2.8979 5.4738 0.483 3.3808-0.322 7.4058-0.805 3.8639-2.0931 7.5668l-17.226 48.782q-1.61 4.6689-1.127 7.4058 0.64399 2.5759 3.703 2.5759 3.2199 0 6.1179-3.5419 2.8979-3.542 6.4399-12.88l2.2538-5.9568h3.059l-4.186 11.753q-2.2539 6.2788-5.4739 9.9814-3.22 3.5421-6.9229 4.9909-3.703 1.61-7.4059 1.61-6.9229 0-9.3379-3.2199-2.4151-3.2199-1.7711-8.3718 0.64399-5.1519 2.737-10.948z"
    fill="#fb9dbf"
  />
  <path
    d="m1077 215.13q-5.1519 0-9.9814 4.1859-4.669 4.0249-8.6939 11.109-3.864 6.9228-6.9229 15.617-2.898 8.6938-4.508 18.032-1.6099 9.3378-1.6099 17.871 0 7.2448 2.2539 10.625 2.415 3.3809 6.9229 3.3809 5.152 0 9.8209-4.0249 4.8299-4.1859 8.8549-11.109 4.0249-7.0838 6.9229-15.778 2.8979-8.6938 4.5079-17.871 1.61-9.3378 1.61-18.032 0-7.4058-2.2541-10.625-2.254-3.3809-6.9229-3.3809zm-45.563 58.763q0-7.0838 1.932-15.456 1.932-8.3718 5.7959-16.583 3.864-8.2108 9.3379-14.973 5.6349-6.7618 13.041-10.787 7.4059-4.1859 16.422-4.1859 9.9815 0 15.938 6.2788 6.1179 6.1178 6.1179 18.998 0 7.0838-1.932 15.456-1.932 8.3718-5.7959 16.583-3.864 8.2108-9.4989 14.973-5.4739 6.7618-12.88 10.948-7.4059 4.0249-16.422 4.0249-9.9815 0-16.1-6.2788-5.957-6.2788-5.957-18.998z"
    fill="#fb9dbf"
  />
  <path
    d="m834.92 325.42q15.045 0 23.02 8.1567 8.1568 7.9757 8.1568 25.195 0 15.407-6.1633 29.185-6.1633 13.776-16.314 25.558-10.151 11.601-22.478 20.482-12.144 8.882-24.472 14.501-12.326 5.619-22.658 7.2505l-1.0877-3.6254q9.2445-2.5377 18.853-8.7006 9.607-5.9818 18.125-15.226 8.5193-9.2444 15.226-21.208 6.8881-11.963 10.694-26.284 3.9879-14.32 3.9879-30.453 0-12.689-2.5377-16.858-2.3565-4.3503-6.8881-4.3503-6.1633 0-11.239 5.438-5.0756 5.438-8.8821 13.958-3.6254 8.3381-5.619 17.583-1.8126 9.0634-1.8126 16.858 0 8.7006 2.5377 12.326 2.5377 3.6252 6.3443 3.6254 4.1693 0 8.7007-4.1693t7.7944-14.501l3.0815 0.90627q-2.9002 9.7882-7.432 15.589-4.5317 5.8004-10.332 8.3381-5.619 2.3564-11.963 2.3564-10.876 0-18.307-6.888-7.2506-6.8881-7.2506-20.484 0-10.694 4.5318-20.482 4.7128-9.7882 12.87-17.401 8.1568-7.7943 18.671-12.144 10.694-4.5317 22.839-4.5317z"
    fill="#fb9dbf"
  />
  <path
    d="m942.06 325.42q16.859 0 26.284 8.882 9.4255 8.7006 9.4255 24.107 0 12.144-5.0756 23.926t-13.958 21.208q-8.8821 9.4254-20.664 15.044-11.601 5.619-24.653 5.619-16.494 0-26.284-8.7006-9.7884-8.7006-9.7884-24.471 0-12.326 5.0756-23.926 5.2566-11.601 14.139-21.028 9.0635-9.6068 20.664-15.044 11.782-5.619 24.833-5.619zm-2.9002 3.2628q-7.613 0-14.139 5.8004-6.5253 5.619-11.42 15.226-4.7128 9.6068-7.2506 21.389-2.5378 11.782-2.5377 23.564 0 14.139 3.6254 20.301 3.6254 5.9818 8.8821 5.9818 7.9758 0 14.32-5.9818 6.3443-5.9818 10.876-15.77 4.7128-9.7882 7.2506-21.569 2.5377-11.782 2.5377-23.202 0-13.958-3.444-19.758-3.444-5.9818-8.7007-5.9818z"
    fill="#fb9dbf"
  />
  <path
    d="m1039.5 325.22q13.594 0 21.569 4.8941 7.9759 4.8941 7.9759 13.232 0 6.3442-3.9879 11.782-3.8065 5.2566-10.151 9.6068-6.1633 4.1693-13.594 7.0695-7.2506 2.9002-14.139 4.5317 9.7884 0.18125 17.583 2.5377 7.7944 2.1752 12.326 7.0694 4.5318 4.8941 4.5318 12.689 0 9.2444-6.1633 17.22-5.9818 7.7943-16.133 13.776-10.151 6.1632-22.658 10.332-12.326 4.3503-25.196 6.5256-12.689 2.3564-23.927 2.5377l0.90627-3.2628q10.694-0.72501 22.296-4.1693 11.601-3.444 21.752-9.7882 10.151-6.1632 16.314-15.044 6.1632-9.0634 6.1632-21.028 0-7.2505-2.9002-11.601-2.719-4.5317-8.1568-4.8941-2.9003 1.2689-5.6191 2.1752-2.5377 0.90626-4.8942 0.90626-1.4501 0-2.5377-0.54376-1.0877-0.54376-0.5437-2.1752 0.5437-2.5377 3.9879-3.0814 3.4441-0.54376 8.1568-0.1811 6.3443-2.5377 11.239-6.7066 5.0755-4.3503 8.1568-9.7882 3.0815-5.619 3.0815-12.144 0-7.6129-4.5318-11.963-4.3503-4.3503-12.326-4.3503-4.8942 0-9.7884 1.8125-4.7128 1.8125-8.7007 4.8941-3.8065 3.0814-6.3443 7.0695-2.3564 3.8065-2.3564 7.7943 0 4.3503 2.3564 6.5256 2.5377 2.1752 8.1569 2.1752 6.1629 0 11.239-2.7189l1.994 2.7189q-3.8065 1.9939-7.613 2.9002-3.6254 0.90626-6.8882 0.90626-2.9002 0-6.1632-0.90626-3.0815-1.0877-5.2566-3.6254-2.1752-2.7189-2.1752-7.7943 0-6.7066 5.619-13.051 5.8005-6.3442 15.589-10.513 9.7884-4.3503 21.752-4.3503z"
    fill="#fb9dbf"
  />
</svg>
