<?xml version="1.0" encoding="UTF-8"?>
<svg width="1200" height="630" version="1.1" viewBox="0 0 1200 630" xmlns="http://www.w3.org/2000/svg">
  <rect width="1200" height="630" fill="#1d0f43"/>
  <path d="m847.53 296.67c-48.202-0.70546-88.227 38.177-88.936 86.375-0.70585 48.202 38.168 88.231 86.368 88.936 48.202 0.70546 88.227-38.168 88.936-86.368 0.70546-48.202-38.168-88.238-86.368-88.944zm-0.51607 35.276c29.139 0.42659 52.044 24.011 51.615 53.151-0.42659 29.139-24.011 52.036-53.151 51.608-29.139-0.42659-52.044-24.003-51.615-53.143 0.42621-29.139 24.011-52.044 53.151-51.615z" fill="#fb9db6" stroke-width="3.8571"/>
  <path d="m898.55 158c-21.336 0.10499-42.79 6.817-61.011 20.606l24.832 32.814c27.11-20.518 65.104-15.261 85.623 11.85 20.491 27.074 15.272 65.003-11.746 85.538-0.0351 0.0278-0.0718 0.0525-0.108 0.0802l24.834 32.814c27.109-20.519 65.104-15.261 85.619 11.85 20.52 27.11 15.266 65.107-11.849 85.623l24.832 32.81c44.846-33.94 53.772-98.433 19.829-143.27-20.084-26.537-50.871-40.495-81.947-40.434 8.501-29.895 3.4289-63.31-16.656-89.851-20.151-26.625-51.068-40.588-82.252-40.434z" fill="#fb9db6" stroke-width="3.8571"/>
  <path d="m692.04 163.47c-47.187 0.51565-85.99 38.926-86.684 86.372-0.70573 48.202 38.17 88.231 86.368 88.936 3.4571 0.0509 6.8683-0.10954 10.23-0.45437l-69.003 115.59 30.285 18.085 104.86-175.62-0.0656-0.0355c7.8009-12.862 12.399-27.87 12.633-43.913 0.70546-48.202-38.17-88.231-86.368-88.936-0.75367-9e-3 -1.5081-0.0251-2.2572-0.0163zm0.37375 35.268c0.45244-4e-3 0.90796-2e-3 1.3631 5e-3 29.139 0.42659 52.044 24.01 51.615 53.15-0.14232 9.7202-2.8731 18.737-7.5151 26.434l-0.0748-0.0401-1.4179 2.3721c-9.5347 14.059-25.726 23.12-44.148 22.851-29.139-0.4266-52.044-24.01-51.615-53.151 0.41973-28.685 23.283-51.33 51.793-51.623z" fill="#fb9db6" stroke-width="3.8571"/>
  <path d="m137.85 407.8c-3.4869 0-6.9157-0.30124-10.279-0.90371-3.3673-0.48213-6.6148-1.3862-9.7431-2.7119-1.6817-0.60247-3.0665-1.0846-4.1464-1.4464-1.0838-0.48174-1.8051-0.72281-2.1638-0.72281-0.60168 0-1.2651 0.12034-1.9864 0.36141-0.72125 0.24106-1.3808 0.48213-1.9825 0.7232-0.72125 0.48213-1.4425 0.96427-2.1638 1.446-0.60168 0.36179-1.1417 0.54269-1.6238 0.54269-0.60171 0-1.3847-0.42196-2.3451-1.2655-0.96041-0.84393-1.4425-1.6273-1.4425-2.3501 0-0.84393 0.60171-2.5912 1.8051-5.2429 1.1996-2.6514 2.4647-5.9658 3.7877-9.9427 1.4425-4.0979 2.4647-8.4968 3.0665-13.197 0.47827-2.8925 1.6817-4.3389 3.6064-4.3389 1.2034 0 1.9247 0.72321 2.1638 2.1696 0.3587 1.3257 0.53999 3.4347 0.53999 6.3272 0 4.3389 0.72126 8.3759 2.1638 12.112 1.566 3.7358 3.9112 6.749 7.0352 9.039 3.2475 2.1692 7.3938 3.2537 12.447 3.2537 7.4559 0 13.646-2.109 18.576-6.3272 4.9293-4.218 7.3941-9.9432 7.3941-17.174 0-3.0126-0.47827-5.7848-1.4425-8.3158-0.96044-2.5306-2.5842-5.1822-4.8676-7.9541-2.2872-2.8928-5.531-6.2675-9.7391-10.124-5.4115-4.9412-9.8626-9.8826-13.349-14.824-3.3673-5.0616-5.0489-11.088-5.0489-18.078 0-6.508 1.7434-12.293 5.2302-17.355 3.4869-5.0616 8.1771-9.039 14.067-11.932 6.0132-3.0129 12.748-4.5197 20.203-4.5197 2.7655 0 5.4115 0.30132 7.9341 0.90391 2.646 0.4821 5.1106 1.0244 7.3978 1.627 2.403 0.72311 4.3854 1.386 5.9514 1.9886 1.5621 0.60258 2.8852 0.9039 3.9651 0.9039 1.4464 0 2.7076-0.30132 3.7877-0.9039 0.60171-0.36157 1.2034-0.66284 1.8051-0.9039 0.60168-0.24103 1.2034-0.36158 1.8051-0.36158 1.08 0 1.7434 0.4218 1.9825 1.2655 0.23915 0.72312 0.23915 1.386 0 1.9886-0.48214 0.72312-1.2612 2.1091-2.3451 4.1579-0.96041 1.9281-2.0442 4.64-3.2478 8.1348-1.08 3.4953-2.1021 7.8943-3.0625 13.197-0.24299 1.6875-0.72512 3.0132-1.4464 3.9775-0.59785 0.84354-1.2613 1.2655-1.9825 1.2655-0.84086 0-1.5043-0.48214-1.9825-1.4464-0.36259-0.96427-0.54385-2.3501-0.54385-4.1579 0-8.1954-1.9208-14.523-5.7701-18.982-3.8495-4.58-8.9601-6.8697-15.332-6.8697-4.2081 0-7.9958 1.0847-11.363 3.254-3.2475 2.1694-5.8318 4.9412-7.7564 8.3158-1.8012 3.2537-2.7038 6.689-2.7038 10.304 0 3.0126 0.48214 5.9052 1.4425 8.6773 1.0838 2.6514 2.8852 5.4836 5.4115 8.4968 2.5264 2.8925 5.9514 6.3272 10.279 10.304 6.4953 5.6644 11.186 10.907 14.071 15.728 2.8852 4.7001 4.3276 9.762 4.3276 15.185 0 6.3876-1.6238 12.414-4.8676 18.078-3.2478 5.5437-8.0576 10.063-14.429 13.558-6.2522 3.3747-13.951 5.0621-23.088 5.0621z" fill="#fff5eb" stroke-width="3.8571"/>
  <path d="m204.14 407.62c-1.2034 0-2.5264-0.48214-3.969-1.446-1.323-0.96427-2.4647-2.0489-3.4251-3.2543-0.84469-1.3257-1.2651-2.4704-1.2651-3.4347 0-1.6875 0.1813-3.1336 0.54385-4.3389 0.47828-1.3257 1.08-2.9526 1.8012-4.8811l17.137-47.365c0.3587-1.2049 0.30084-1.9883-0.18129-2.3501-0.48213-0.48213-1.0838-0.7232-1.8051-0.7232l-7.5754-0.3614c-1.8013-0.12035-2.8852-0.48214-3.2438-1.0846-0.36256-0.7232-0.54385-1.3257-0.54385-1.8078 0-0.24106 0.30084-0.7232 0.90255-1.4464 0.72128-0.84354 1.6238-1.6269 2.7038-2.3501 1.0838-0.84354 2.2256-1.2655 3.4291-1.2655h7.3941c1.4425 0 2.4068-0.24107 2.8852-0.72321 0.60171-0.48174 1.2651-1.446 1.9864-2.8925l4.5089-9.4005c0.72129-1.2053 1.7434-2.531 3.0665-3.9769 1.4426-1.4464 2.9469-2.6517 4.5089-3.6157 1.5621-1.085 2.7655-1.6273 3.6064-1.6273 1.323 0 2.1638 0.78337 2.5264 2.3501 0.3587 1.4464 0.30084 2.8928-0.18129 4.3389l-4.509 12.655c-0.36256 1.2053-0.36256 1.9887 0 2.3501 0.48214 0.24107 1.2612 0.3618 2.3451 0.3618 2.1638 0 4.3894 0.18051 6.6726 0.5423 2.2834 0.3614 4.3276 0.66264 6.1327 0.90371 2.1638 0.36179 3.4869 0.78337 3.969 1.2655 0.4783 0.48214 0.72128 1.0846 0.72128 1.8078 0 0.24107-0.30084 0.7232-0.90255 1.4464-0.48213 0.60247-1.5043 0.96388-3.0665 1.0846-2.2834 0.12034-4.5089 0.30123-6.6726 0.5423-2.0442 0.12034-4.3277 0.24107-6.8539 0.3614-2.0442 0.12073-3.5486 0.42197-4.5089 0.9041-0.84083 0.48214-1.4425 1.205-1.8051 2.1692l-15.151 41.943c-0.60171 1.8078-0.90256 3.3143-0.90256 4.5196 0 1.0846 0.30085 1.868 0.90256 2.3501 0.6017 0.48214 1.4425 0.72321 2.5264 0.72321 1.6817 0 3.5447-0.66304 5.5888-1.9887 2.0442-1.3257 4.0308-2.8322 5.9554-4.5197 2.0442-1.8078 3.726-3.3747 5.0489-4.7001 0.96041-0.96387 1.8051-1.3858 2.5264-1.2655 0.72126 0 1.08 0.24107 1.08 0.7232 0.24298 0.60247 0.18126 1.3862-0.1813 2.3501-0.23912 0.84354-0.65956 1.7476-1.2612 2.7119-1.4426 1.9281-3.186 3.9769-5.2302 6.1462-2.0442 2.0489-4.3276 4.0979-6.8539 6.1465-2.403 1.9285-4.8715 3.6758-7.3939 5.2426-2.5264 1.4464-4.9293 2.5912-7.2165 3.435-2.1638 0.96388-4.0886 1.446-5.7701 1.446z" fill="#fff5eb" stroke-width="3.8571"/>
  <path d="m263.32 407.62c-1.8051 0-3.5486-0.78337-5.2302-2.3501-1.566-1.446-2.7655-3.1336-3.6101-5.0616-0.72125-2.0489-0.77911-3.7964-0.1774-5.2429l18.217-43.026c0.84083-1.9281 1.3191-3.5554 1.4425-4.8811 0.11958-1.3257-0.30084-1.9883-1.2651-1.9883-0.60171 0-1.6817 0.54231-3.2438 1.6269-1.566 0.96427-3.2478 2.1692-5.0528 3.6157-1.8013 1.446-3.4869 2.8925-5.0489 4.3389-0.72128 0.60247-1.5042 0.9037-2.3451 0.9037-0.72126-0.12034-1.0838-0.48213-1.0838-1.0846 0-0.72321 0.18127-1.5667 0.54383-2.531 0.4783-1.0846 1.1417-2.2294 1.9826-3.4347 3.2475-4.218 6.7344-7.7736 10.46-10.666 3.7299-2.8925 7.3361-5.1822 10.823-6.8697 3.6064-1.6871 6.6148-2.531 9.0179-2.531 0.96427 0 1.9864 0.5423 3.0665 1.6273 1.2034 0.96387 2.106 2.109 2.7077 3.4347 0.59784 1.3257 0.59784 2.531 0 3.6157-3.3673 7.1105-6.8539 14.704-10.464 22.778-3.4869 7.9544-7.0933 16.15-10.819 24.586-1.0838 2.2899-1.6856 4.3389-1.8051 6.1465-0.11957 1.6871 0.42042 2.5306 1.6238 2.5306s3.0047-1.0846 5.4115-3.2537c2.403-2.2899 5.1106-5.1822 8.1154-8.6776 3.0047-3.4948 6.1327-7.1706 9.3805-11.027 3.8455-4.3389 7.5137-8.858 11-13.559 3.4869-4.7001 6.5531-9.039 9.1992-13.016 2.7655-3.9769 4.6902-6.93 5.7701-8.858 1.0838-1.9285 2.1677-3.3747 3.2475-4.3389 1.2034-0.96427 2.4068-1.4464 3.6064-1.4464 1.2034 0 2.3451 0.48213 3.4291 1.4464 1.2034 0.96427 2.0442 2.109 2.5226 3.4347 0.60168 1.2053 0.6634 2.3501 0.18127 3.435l-21.102 50.799c-0.84084 1.8078-1.2034 3.2537-1.0838 4.3389 0.12341 1.0846 0.6634 1.6269 1.6238 1.6269 1.323 0 3.186-0.78337 5.5928-2.3501 2.5264-1.6875 5.1106-3.6157 7.7564-5.7853 2.7655-2.1692 4.9911-4.0973 6.6726-5.7848 0.23915-0.24107 0.42042-0.3614 0.53999-0.3614 0.48213 0 0.90255 0.24106 1.2651 0.7232 0.47827 0.3614 0.72125 0.78337 0.72125 1.2651 0 0.7232-0.36256 1.5671-1.0838 2.531-0.60168 0.84354-1.4425 1.8078-2.5264 2.8925-1.08 1.085-2.2834 2.1696-3.6064 3.2543-1.2034 0.96427-2.4647 1.868-3.7877 2.7115-1.323 0.7232-2.5264 1.3261-3.6064 1.8078-2.0442 2.0489-4.3894 3.9171-7.0352 5.6043-2.5264 1.5667-5.1106 2.7119-7.7564 3.4347-2.6421 0.72321-5.3497 0.90411-8.1154 0.54231-1.08-0.12034-2.0442-1.0244-2.8852-2.7115-0.84083-1.6875-0.9604-3.1936-0.36256-4.5196 1.4425-3.1336 3.0084-6.508 4.6902-10.124 1.6855-3.6157 3.2475-7.0504 4.6902-10.304 1.4425-3.3747 2.5842-6.2068 3.4251-8.4968 0.48213-1.3257 0.36256-2.0489-0.3587-2.1696-0.60171-0.12034-1.2034 0.1809-1.8051 0.9041-5.288 6.1465-10.16 11.751-14.607 16.813-4.3316 4.9412-8.2967 9.1594-11.907 12.655-3.6064 3.4948-6.8539 6.2068-9.7391 8.1348-2.7655 1.9285-5.1684 2.8925-7.2128 2.8925z" fill="#fff5eb" stroke-width="3.8571"/>
  <path d="m356.28 407.62c-3.726 0-6.7922-1.2655-9.1992-3.7962-2.403-2.6517-3.6064-5.9658-3.6064-9.9432 0-4.5794 0.96427-9.5812 2.8852-15.005 1.9247-5.5437 4.5089-11.148 7.7564-16.813 3.3673-5.7848 7.2165-11.148 11.544-16.089 4.9293-5.6644 9.8009-10.003 14.611-13.016 4.9293-3.1336 9.4383-4.7001 13.527-4.7001 2.0442 0 3.7877 0.42157 5.2302 1.2655 1.5621 0.72281 3.8495 2.0485 6.8539 3.9769 1.9247 1.2053 3.0665 1.9281 3.4251 2.1692 0.36259 0.12072 0.48213 0.1809 0.36259 0.1809 0.48213 0 0.84083-0.48214 1.0838-1.4464l10.819-35.974c0.48213-1.446 0.783-2.5308 0.90258-3.254 0.23912-0.72312 0.36256-1.145 0.36256-1.2655 0.11957-0.24107 0.11957-0.42185 0-0.54233v-0.72312c0-1.2052-0.42428-2.2296-1.2651-3.0732-0.84083-0.96416-2.3451-1.8078-4.509-2.5309-2.2834-0.96415-3.6682-1.5667-4.1464-1.8078-0.48214-0.24103-0.72126-0.54231-0.72126-0.90388 0-0.84365 0.42042-1.5065 1.2612-1.9886 0.96041-0.48211 2.5264-0.96416 4.6902-1.4463 1.6817-0.36157 3.6064-0.72311 5.7701-1.0847 2.2834-0.4821 4.4512-0.84365 6.4953-1.0847 2.1638-0.36157 4.0268-0.66286 5.5888-0.9039 1.6856-0.24103 2.8274-0.36157 3.4291-0.36157 1.9208 0 2.8852 0.84365 2.8852 2.531 0 0.84362-0.0617 1.627-0.18129 2.3502-0.11958 0.72311-0.42042 1.6873-0.90255 2.8925l-30.479 99.971c-0.12341 0.84354-0.30084 1.6269-0.54383 2.3501-0.11957 0.72321-0.18129 1.446-0.18129 2.1692 0 2.1696 0.72512 3.2543 2.1677 3.2543 1.323 0 3.0047-0.5423 5.0489-1.6273 2.0442-1.2049 4.1464-2.7115 6.314-4.5194 2.1638-1.9281 4.0268-3.9168 5.5888-5.9658 0.36256-0.3614 0.60168-0.5423 0.72126-0.5423 0.11957-0.12073 0.30086-0.1809 0.54385-0.1809 1.1996 0 1.6817 0.60247 1.4425 1.8078 0 1.4464-0.72126 3.3143-2.1638 5.6043-1.4464 2.1692-3.3673 4.399-5.774 6.689-2.2834 2.2896-4.8098 4.459-7.5754 6.508-2.646 2.0489-5.2919 3.6758-7.9341 4.8811-2.5264 1.3257-4.6902 1.9883-6.4953 1.9883-1.4425 0-2.8852-0.42157-4.3276-1.2655-1.4425-0.84353-2.646-1.9281-3.6064-3.2537-0.96427-1.4464-1.4425-2.8925-1.4425-4.3389 0-0.60247 0.23915-2.109 0.72128-4.5194 0.3587-1.3257 0.84083-2.9529 1.4425-4.8811 0.60171-1.9285 1.1996-3.7965 1.8012-5.6043 0.60171-1.8078 1.0221-3.1336 1.2651-3.9769 0.23912-0.84393 0.23912-0.78337 0 0.18051 0.23912-0.84354 0.17743-1.446-0.18129-1.8078-0.36256-0.36141-0.72126-0.24069-1.0838 0.36179-8.2967 10.365-15.571 17.837-21.823 22.416-6.2522 4.4596-12.385 6.689-18.398 6.689zm9.7391-11.751c2.8889 0 6.1327-1.0846 9.7431-3.2543 3.6064-2.2899 7.1548-5.2426 10.642-8.858 3.4869-3.7358 6.7307-7.8337 9.7391-12.293 3.0047-4.4596 5.3497-8.8586 7.0316-13.197 1.8051-4.4596 2.7077-8.5569 2.7077-12.293 0-3.3747-0.72129-6.0258-2.1638-7.9544-1.4425-1.9281-3.5486-2.8925-6.314-2.8925-2.5264 0-5.4693 1.2655-8.8366 3.7964-3.2478 2.531-6.5531 5.8451-9.9204 9.9427-3.2475 4.0979-6.314 8.5569-9.1992 13.378-2.7655 4.8211-5.0489 9.6416-6.8539 14.463-1.6817 4.8205-2.5264 9.039-2.5264 12.655 0 2.4103 0.42041 4.0979 1.2651 5.0616 0.9604 0.96427 2.5225 1.4464 4.6863 1.4464z" fill="#fff5eb" stroke-width="3.8571"/>
  <path d="m452.45 407.62c-2.2834 0-4.2698-0.84354-5.9514-2.5306-1.6856-1.5671-2.5264-3.1939-2.5264-4.8811 0-0.48214 0.0617-0.96427 0.18127-1.4464 0.11957-0.60247 0.30086-1.2053 0.53999-1.8078 4.4511-9.1594 8.2967-17.897 11.544-26.213 3.2475-8.4365 6.1944-16.029 8.8366-22.778 0.48214-1.2053 0.1813-1.8078-0.89869-1.8078-0.60171 0-1.7434 0.30123-3.4291 0.9037-1.5621 0.60287-3.2478 1.4464-5.0489 2.531-1.6856 0.96427-3.186 1.9285-4.5089 2.8925-0.96427 0.60286-1.8051 0.78337-2.5264 0.5423-0.60168-0.3614-0.90255-0.90371-0.90255-1.6269s0.54385-1.7476 1.6238-3.0732c1.2034-1.3257 2.7655-2.8322 4.6902-4.5194 2.0442-1.6875 4.3276-3.435 6.8539-5.2429 2.5264-1.8078 5.1106-3.4948 7.7564-5.0616 2.7655-1.6875 5.4693-3.0732 8.1154-4.1579 1.323-0.60247 2.646-0.48214 3.969 0.3614 1.4425 0.7232 2.5225 1.7476 3.2438 3.0732 0.84472 1.2053 1.0838 2.2298 0.72129 3.0733l-21.28 51.524c-0.36256 0.7232-0.6634 1.5066-0.90255 2.3501-0.11957 0.7232-0.18126 1.3862-0.18126 1.9887 0 0.7232 0.23912 1.2049 0.72125 1.446 0.60171 0.24106 1.1417 0.3618 1.6238 0.3618 1.4425 0 3.2478-0.72321 5.4115-2.1696 2.2834-1.5667 4.6285-3.4347 7.0316-5.604 2.5264-2.2899 4.8098-4.459 6.8539-6.508 0.24301-0.3618 0.48213-0.5423 0.72128-0.5423 0.36256 0 0.72512 0.18051 1.0838 0.5423 0.36256 0.24107 0.53999 0.60247 0.53999 1.0846 0 1.9281-1.1996 4.459-3.6064 7.5926-2.403 3.0132-5.4115 6.0258-9.0179 9.039-3.6064 3.0132-7.3361 5.5443-11.182 7.5926-3.7296 2.0489-7.097 3.0732-10.102 3.0732zm35.173-94.73c-2.1638 0-3.969-0.78337-5.4115-2.3501-1.323-1.6871-1.9864-3.6157-1.9864-5.7848 0-3.2543 1.1455-6.1465 3.4291-8.6776 2.2834-2.6514 5.1106-3.9769 8.478-3.9769 2.2834 0 4.0268 0.96416 5.2302 2.8925 1.323 1.9285 1.9825 3.9775 1.9825 6.1465 0 3.0132-1.1417 5.7247-3.4251 8.1348-2.2872 2.4107-5.0528 3.6157-8.2967 3.6157z" fill="#fff5eb" stroke-width="3.8571"/>
  <path d="m514.7 407.62c-3.4905 0-6.7961-0.96388-9.9204-2.8925-3.0084-2.0489-5.4732-4.7604-7.3978-8.1348-1.8013-3.4953-2.7038-7.2312-2.7038-11.209 0-5.6641 1.1417-11.751 3.4251-18.259 2.2872-6.508 5.531-12.655 9.7431-18.44 4.2081-5.7853 9.1374-10.485 14.788-14.101 5.6506-3.7358 11.845-5.6043 18.579-5.6043 6.7307 0 12.023 2.1696 15.872 6.5085 3.8455 4.218 5.7701 9.7016 5.7701 16.451 0 5.4233-1.1417 11.389-3.4251 17.897-2.1677 6.3876-5.3537 12.474-9.5618 18.259-4.2081 5.6644-9.257 10.365-15.151 14.101-5.8897 3.6157-12.566 5.4233-20.018 5.4233zm3.0626-5.9658c2.646 0 5.3537-1.2655 8.119-3.7962 2.7655-2.6517 5.4115-6.0864 7.9341-10.304 2.646-4.2185 4.9293-8.858 6.8539-13.92 2.0442-5.0621 3.6682-10.124 4.8715-15.186 1.2034-5.0616 1.8012-9.6416 1.8012-13.739 0-3.0126-0.53999-5.363-1.62-7.0504-0.96427-1.8078-2.8271-2.7115-5.5928-2.7115-2.5264 0-5.1724 1.2049-7.9377 3.6152-2.7655 2.4107-5.4693 5.6644-8.1154 9.7622-2.5264 3.9775-4.8098 8.4365-6.8539 13.378-2.0442 4.8211-3.6682 9.8223-4.8676 15.005-1.2034 5.1822-1.8051 10.124-1.8051 14.824 0 3.4953 0.60171 6.0864 1.8051 7.7736 1.323 1.5667 3.1243 2.3501 5.4075 2.3501z" fill="#fff5eb" stroke-width="3.8571"/>
</svg>
