<?xml version="1.0" encoding="UTF-8"?>
<svg width="512" height="512" version="1.1" viewBox="0 0 512 512" xmlns="http://www.w3.org/2000/svg">
  <rect width="512" height="512" fill="#1d0f43"/>
  <g transform="matrix(.86206 0 0 .86206 35.315 35.311)" fill="#fb9db6">
    <path d="m251.17 238.82c-45.209-0.66164-82.756 35.809-83.418 81.018-0.66191 45.208 35.802 82.754 81.012 83.418 45.209 0.66162 82.756-35.802 83.418-81.012 0.66163-45.208-35.802-82.765-81.012-83.423zm-0.48402 33.088c27.331 0.40021 48.816 22.522 48.416 49.854-0.40006 27.331-22.522 48.809-49.855 48.409-27.331-0.4002-48.816-22.514-48.416-49.848 0.39979-27.331 22.522-48.815 49.855-48.415z"/>
    <path d="m299.03 108.75c-20.012 0.0984-40.137 6.394-57.228 19.328l23.292 30.779c25.429-19.246 61.066-14.314 80.311 11.115 19.22 25.395 14.326 60.97-11.017 80.231-0.0343 0.026-0.067 0.0492-0.10114 0.0753l2e-3 2e-3 23.292 30.776c25.427-19.246 61.063-14.314 80.309 11.115s14.316 61.07-11.113 80.313l23.292 30.774c42.062-31.834 50.433-92.328 18.599-134.39-18.84-24.89-47.715-37.982-76.866-37.925 7.973-28.04 3.2172-59.385-15.623-84.278-18.902-24.973-47.903-38.071-77.153-37.927z"/>
    <path d="m105.31 113.87c-44.259 0.48367-80.657 36.509-81.306 81.014-0.66197 45.208 35.802 82.754 81.012 83.418 3.2423 0.0479 6.4424-0.10249 9.5955-0.42616l-64.724 108.42 28.406 16.964 98.359-164.73-0.0615-0.0328c7.3171-12.064 11.629-26.141 11.85-41.188 0.66193-45.208-35.802-82.754-81.012-83.418-0.70672-7e-3 -1.4109-0.0122-2.1134-5e-3zm0.35075 33.08c0.42436-5e-3 0.85141-2e-3 1.2783 5e-3 27.331 0.40023 48.816 22.521 48.416 49.85-0.1333 9.117-2.6949 17.574-7.049 24.794l-0.0703-0.0374-1.3297 2.2247c-8.9434 13.187-24.13 21.686-41.408 21.433-27.331-0.40024-48.816-22.521-48.416-49.85 0.39368-26.906 21.836-48.146 48.575-48.419z"/>
  </g>
</svg>
