<?xml version="1.0" encoding="UTF-8"?>
<svg width="512" height="512" version="1.1" viewBox="0 0 512 512" xmlns="http://www.w3.org/2000/svg">
    <rect width="512" height="512" fill="#1c2021" />
    <g fill="#fb9db6">
        <path
            d="m251.84 241.19c-38.973-0.57037-71.341 30.87-71.911 69.842-0.57061 38.972 30.863 71.339 69.837 71.911 38.973 0.57035 71.341-30.863 71.911-69.837 0.57037-38.972-30.863-71.348-69.837-71.916zm-0.41725 28.524c23.561 0.34501 42.082 19.415 41.737 42.977-0.34487 23.561-19.415 42.076-42.978 41.731-23.561-0.34499-42.082-19.408-41.738-42.972 0.34465-23.561 19.415-42.081 42.978-41.737z"
        />
        <path
            d="m293.1 129.06c-17.252 0.0848-34.6 5.512-49.334 16.662l20.079 26.533c21.921-16.591 52.643-12.34 69.233 9.5818 16.569 21.892 12.35 52.56-9.4973 69.164-0.0296 0.0224-0.0578 0.0424-0.0872 0.0649l2e-3 2e-3 20.079 26.531c21.92-16.591 52.64-12.34 69.231 9.5818 16.591 21.921 12.341 52.646-9.5801 69.235l20.079 26.529c36.26-27.443 43.476-79.592 16.033-115.85-16.241-21.457-41.133-32.743-66.263-32.694 6.8732-24.172 2.7734-51.193-13.468-72.653-16.295-21.528-41.295-32.819-66.511-32.695z"
        />
        <path
            d="m126.1 133.47c-38.154 0.41695-69.531 31.473-70.091 69.839-0.57066 38.972 30.863 71.339 69.837 71.911 2.7951 0.0413 5.5537-0.0883 8.2719-0.36737l-55.796 93.465 24.488 14.624 84.791-142.01-0.053-0.0283c6.3078-10.4 10.025-22.535 10.215-35.507 0.57062-38.972-30.863-71.339-69.837-71.911-0.60923-6e-3 -1.2163-0.0105-1.8219-4e-3zm0.30237 28.517c0.36582-4e-3 0.73396-2e-3 1.102 4e-3 23.561 0.34502 42.082 19.414 41.737 42.974-0.11491 7.8594-2.3232 15.15-6.0767 21.374l-0.0606-0.0322-1.1463 1.9178c-7.7098 11.368-20.802 18.695-35.696 18.477-23.561-0.34503-42.082-19.414-41.737-42.974 0.33938-23.195 18.824-41.505 41.875-41.74z"
        />
    </g>
</svg>
