<?xml version="1.0" encoding="UTF-8"?>
<svg width="1200" height="900" version="1.1" viewBox="0 0 1200 900" xmlns="http://www.w3.org/2000/svg">
  <rect width="1200" height="900" fill="#1d0f43"/>
  <path d="m847.55 431.67c-48.204-0.70548-88.23 38.179-88.94 86.378-0.70587 48.204 38.17 88.234 86.371 88.94 48.204 0.70548 88.23-38.17 88.94-86.371 0.70549-48.204-38.17-88.241-86.371-88.947zm-0.51609 35.278c29.14 0.4266 52.045 24.012 51.617 53.152-0.42661 29.14-24.012 52.038-53.152 51.61-29.14-0.42661-52.045-24.003-51.617-53.145 0.42622-29.14 24.012-52.045 53.152-51.617z" fill="#fb9db6" stroke-width="3.8572"/>
  <path d="m898.58 293c-21.337 0.10499-42.792 6.8172-61.013 20.607l24.833 32.815c27.111-20.519 65.106-15.261 85.626 11.851 20.491 27.075 15.273 65.006-11.746 85.541-0.0351 0.0278-0.0717 0.0525-0.108 0.0802l24.835 32.815c27.11-20.52 65.106-15.261 85.622 11.851 20.52 27.111 15.267 65.11-11.849 85.626l24.833 32.811c44.848-33.941 53.773-98.436 19.83-143.27-20.084-26.538-50.873-40.497-81.95-40.435 8.5013-29.896 3.429-63.312-16.656-89.854-20.152-26.626-51.07-40.589-82.255-40.435z" fill="#fb9db6" stroke-width="3.8572"/>
  <path d="m692.06 298.47c-47.189 0.51567-85.993 38.927-86.687 86.375-0.70575 48.204 38.171 88.234 86.371 88.94 3.4572 0.0509 6.8685-0.10955 10.23-0.45438l-69.006 115.59 30.286 18.086 104.86-175.63-0.0656-0.0355c7.8012-12.862 12.399-27.871 12.634-43.914 0.70549-48.204-38.171-88.234-86.371-88.94-0.7537-9e-3 -1.5082-0.0251-2.2572-0.0163zm0.37377 35.269c0.45245-4e-3 0.90799-2e-3 1.3631 5e-3 29.14 0.42661 52.045 24.01 51.617 53.152-0.14233 9.7206-2.8732 18.738-7.5154 26.435l-0.0748-0.0401-1.4179 2.3722c-9.535 14.06-25.726 23.121-44.15 22.852-29.14-0.42661-52.045-24.011-51.617-53.152 0.41974-28.686 23.284-51.332 51.795-51.625z" fill="#fb9db6" stroke-width="3.8572"/>
  <path d="m137.85 542.81c-3.487 0-6.9159-0.30125-10.279-0.90374-3.3674-0.48215-6.6151-1.3863-9.7434-2.712-1.6818-0.60249-3.0666-1.0846-4.1465-1.4464-1.0839-0.48176-1.8052-0.72283-2.1639-0.72283-0.6017 0-1.2652 0.12034-1.9865 0.36141-0.72129 0.24108-1.3809 0.48215-1.9826 0.72323-0.72128 0.48215-1.4426 0.9643-2.1639 1.4461-0.6017 0.36181-1.1417 0.54272-1.6239 0.54272-0.60173 0-1.3848-0.42199-2.3452-1.2656-0.96044-0.84397-1.4426-1.6274-1.4426-2.3502 0-0.84396 0.60173-2.5913 1.8052-5.243 1.1996-2.6514 2.4648-5.966 3.7878-9.943 1.4426-4.098 2.4648-8.4972 3.0666-13.197 0.47828-2.8926 1.6818-4.3391 3.6066-4.3391 1.2035 0 1.9247 0.72323 2.1639 2.1697 0.35871 1.3257 0.54001 3.4348 0.54001 6.3275 0 4.3391 0.72128 8.3762 2.1639 12.113 1.566 3.736 3.9114 6.7493 7.0355 9.0394 3.2476 2.1693 7.3941 3.2538 12.447 3.2538 7.4562 0 13.647-2.1091 18.576-6.3275 4.9295-4.2181 7.3944-9.9436 7.3944-17.175 0-3.0127-0.47829-5.785-1.4426-8.3161-0.96047-2.5307-2.5843-5.1824-4.8678-7.9544-2.2873-2.8929-5.5312-6.2677-9.7395-10.124-5.4117-4.9413-9.863-9.883-13.35-14.824-3.3674-5.0618-5.0491-11.088-5.0491-18.079 0-6.5082 1.7435-12.293 5.2304-17.355 3.487-5.0618 8.1774-9.0394 14.067-11.932 6.0134-3.013 12.748-4.5198 20.204-4.5198 2.7656 0 5.4117 0.30133 7.9344 0.90393 2.646 0.48213 5.1108 1.0245 7.3981 1.6271 2.403 0.72315 4.3856 1.3861 5.9516 1.9887 1.5622 0.6026 2.8853 0.90393 3.9652 0.90393 1.4465 0 2.7078-0.30133 3.7878-0.90393 0.60173-0.36159 1.2035-0.66286 1.8052-0.90394 0.60171-0.24104 1.2034-0.36158 1.8052-0.36158 1.08 0 1.7435 0.42181 1.9826 1.2655 0.23916 0.72314 0.23916 1.3861 0 1.9887-0.48215 0.72314-1.2613 2.1092-2.3452 4.1581-0.96044 1.9282-2.0443 4.6402-3.2479 8.1351-1.08 3.4955-2.1022 7.8946-3.0626 13.197-0.24299 1.6875-0.72515 3.0133-1.4465 3.9776-0.59786 0.84357-1.2613 1.2656-1.9826 1.2656-0.84089 0-1.5043-0.48215-1.9826-1.4464-0.3626-0.96431-0.54387-2.3502-0.54387-4.1581 0-8.1957-1.9209-14.523-5.7703-18.982-3.8496-4.5802-8.9604-6.87-15.332-6.87-4.2083 0-7.9961 1.0847-11.363 3.2541-3.2476 2.1694-5.8321 4.9413-7.7567 8.3161-1.8013 3.2538-2.7039 6.6892-2.7039 10.305 0 3.0127 0.48215 5.9054 1.4426 8.6776 1.0839 2.6514 2.8853 5.4838 5.4117 8.4971 2.5265 2.8926 5.9516 6.3275 10.279 10.305 6.4955 5.6646 11.186 10.907 14.071 15.729 2.8853 4.7003 4.3278 9.7623 4.3278 15.186 0 6.3878-1.6239 12.414-4.8678 18.079-3.2479 5.5439-8.0578 10.064-14.43 13.559-6.2525 3.3748-13.952 5.0623-23.089 5.0623z" fill="#fff5eb" stroke-width=".28196"/>
  <path d="m204.13 542.63c-1.2035 0-2.5265-0.48215-3.9692-1.4461-1.323-0.9643-2.4648-2.049-3.4252-3.2544-0.84473-1.3257-1.2652-2.4705-1.2652-3.4348 0-1.6875 0.1813-3.1337 0.54388-4.3391 0.47828-1.3257 1.08-2.9527 1.8013-4.8813l17.138-47.366c0.3587-1.205 0.30085-1.9884-0.1813-2.3502-0.48216-0.48215-1.0839-0.72322-1.8052-0.72322l-7.5757-0.36142c-1.8013-0.12035-2.8853-0.48215-3.244-1.0846-0.36257-0.72323-0.54387-1.3257-0.54387-1.8079 0-0.24108 0.30085-0.72323 0.90258-1.4465 0.72131-0.84357 1.6239-1.627 2.7039-2.3502 1.0839-0.84357 2.2256-1.2656 3.4292-1.2656h7.3944c1.4426 0 2.4069-0.24108 2.8853-0.72323 0.60173-0.48176 1.2652-1.4461 1.9865-2.8926l4.5091-9.4008c0.72131-1.2054 1.7435-2.5311 3.0666-3.977 1.4426-1.4465 2.947-2.6518 4.5091-3.6159 1.5622-1.085 2.7656-1.6274 3.6066-1.6274 1.323 0 2.1639 0.7834 2.5265 2.3502 0.35871 1.4464 0.30085 2.8929-0.1813 4.3391l-4.5091 12.655c-0.36258 1.2054-0.36258 1.9888 0 2.3502 0.48215 0.24108 1.2613 0.36181 2.3452 0.36181 2.1639 0 4.3896 0.18052 6.6729 0.54233 2.2835 0.36141 4.3278 0.66266 6.1329 0.90373 2.1639 0.36182 3.487 0.7834 3.9692 1.2656 0.47832 0.48216 0.72131 1.0846 0.72131 1.8079 0 0.24108-0.30085 0.72323-0.90258 1.4465-0.48215 0.60249-1.5043 0.96391-3.0666 1.0846-2.2835 0.12035-4.5091 0.30125-6.6729 0.54233-2.0443 0.12034-4.3278 0.24107-6.8542 0.36141-2.0443 0.12073-3.5488 0.42198-4.5091 0.90413-0.84086 0.48216-1.4426 1.205-1.8052 2.1693l-15.151 41.944c-0.60173 1.8079-0.90258 3.3144-0.90258 4.5198 0 1.0846 0.30085 1.868 0.90258 2.3502s1.4426 0.72323 2.5265 0.72323c1.6818 0 3.5448-0.66306 5.589-1.9888 2.0443-1.3257 4.0309-2.8323 5.9556-4.5198 2.0443-1.8079 3.7261-3.3748 5.0491-4.7003 0.96044-0.96391 1.8052-1.3859 2.5265-1.2656 0.72128 0 1.08 0.24108 1.08 0.72323 0.24299 0.60249 0.18127 1.3863-0.1813 2.3502-0.23913 0.84357-0.65959 1.7477-1.2613 2.712-1.4426 1.9282-3.1861 3.977-5.2304 6.1464-2.0443 2.049-4.3278 4.098-6.8542 6.1467-2.403 1.9286-4.8717 3.6759-7.3941 5.2428-2.5265 1.4464-4.9295 2.5913-7.2168 3.4351-2.1639 0.96391-4.0887 1.4461-5.7703 1.4461z" fill="#fff5eb" stroke-width=".28196"/>
  <path d="m263.32 542.63c-1.8052 0-3.5488-0.7834-5.2304-2.3502-1.566-1.4461-2.7656-3.1337-3.6102-5.0618-0.72128-2.049-0.77914-3.7966-0.17741-5.243l18.218-43.027c0.84086-1.9282 1.3192-3.5555 1.4426-4.8813 0.11958-1.3257-0.30085-1.9884-1.2652-1.9884-0.60173 0-1.6818 0.54232-3.244 1.627-1.566 0.96431-3.2479 2.1693-5.053 3.6159-1.8013 1.4461-3.487 2.8926-5.0491 4.3391-0.72131 0.60249-1.5043 0.90374-2.3452 0.90374-0.72128-0.12035-1.0839-0.48215-1.0839-1.0846 0-0.72322 0.18128-1.5668 0.54385-2.5311 0.47832-1.0846 1.1417-2.2295 1.9826-3.4348 3.2476-4.2181 6.7346-7.7739 10.461-10.666 3.73-2.8926 7.3363-5.1824 10.823-6.87 3.6066-1.6871 6.6151-2.5311 9.0182-2.5311 0.9643 0 1.9865 0.54232 3.0666 1.6274 1.2035 0.96391 2.106 2.1091 2.7078 3.4348 0.59787 1.3257 0.59787 2.5311 0 3.6158-3.3674 7.1108-6.8542 14.704-10.465 22.779-3.487 7.9546-7.0936 16.15-10.819 24.587-1.0839 2.29-1.6856 4.3391-1.8052 6.1467-0.11958 1.6871 0.42043 2.5307 1.6239 2.5307s3.0048-1.0846 5.4117-3.2538c2.4031-2.29 5.1108-5.1824 8.1156-8.6779 3.0048-3.4949 6.1329-7.1708 9.3808-11.028 3.8456-4.3391 7.514-8.8583 11.001-13.559 3.487-4.7003 6.5533-9.0394 9.1995-13.017 2.7656-3.977 4.6904-6.9303 5.7703-8.8583 1.0839-1.9286 2.1677-3.3748 3.2476-4.3391 1.2035-0.96431 2.4069-1.4465 3.6066-1.4465 1.2035 0 2.3452 0.48215 3.4292 1.4465 1.2035 0.9643 2.0443 2.1091 2.5226 3.4348 0.60171 1.2054 0.66343 2.3502 0.18128 3.4351l-21.103 50.801c-0.84086 1.8079-1.2034 3.2538-1.0838 4.3391 0.12341 1.0846 0.66342 1.627 1.6239 1.627 1.323 0 3.1862-0.7834 5.593-2.3502 2.5265-1.6875 5.1108-3.6159 7.7567-5.7855 2.7656-2.1693 4.9913-4.0974 6.6729-5.785 0.23916-0.24108 0.42043-0.36142 0.54001-0.36142 0.48215 0 0.90258 0.24108 1.2652 0.72323 0.47829 0.36142 0.72128 0.7834 0.72128 1.2652 0 0.72323-0.36257 1.5672-1.0839 2.5311-0.6017 0.84357-1.4426 1.8079-2.5265 2.8926-1.08 1.085-2.2834 2.1697-3.6066 3.2544-1.2034 0.96431-2.4648 1.868-3.7878 2.7116-1.323 0.72323-2.5265 1.3261-3.6066 1.8079-2.0443 2.049-4.3896 3.9173-7.0355 5.6045-2.5265 1.5668-5.1108 2.712-7.7567 3.4348-2.6422 0.72323-5.3499 0.90413-8.1157 0.54232-1.08-0.12034-2.0443-1.0245-2.8853-2.7116-0.84086-1.6875-0.96044-3.1938-0.36258-4.5198 1.4426-3.1337 3.0085-6.5082 4.6904-10.124 1.6856-3.6159 3.2476-7.0507 4.6904-10.305 1.4426-3.3748 2.5843-6.2071 3.4252-8.4972 0.48215-1.3257 0.36258-2.049-0.35871-2.1697-0.60173-0.12035-1.2035 0.1809-1.8052 0.90413-5.2882 6.1467-10.16 11.751-14.607 16.813-4.3318 4.9413-8.297 9.1598-11.907 12.655-3.6066 3.4949-6.8542 6.2071-9.7395 8.1351-2.7656 1.9286-5.1686 2.8926-7.2131 2.8926z" fill="#fff5eb" stroke-width=".28196"/>
  <path d="m356.28 542.63c-3.7261 0-6.7924-1.2656-9.1995-3.7963-2.403-2.6518-3.6066-5.966-3.6066-9.9436 0-4.5796 0.96431-9.5816 2.8853-15.005 1.9248-5.5439 4.5091-11.148 7.7567-16.813 3.3674-5.785 7.2168-11.148 11.545-16.09 4.9295-5.6646 9.8012-10.004 14.611-13.017 4.9295-3.1337 9.4386-4.7003 13.527-4.7003 2.0443 0 3.7878 0.42159 5.2304 1.2656 1.5622 0.72284 3.8496 2.0486 6.8542 3.977 1.9247 1.2054 3.0666 1.9282 3.4252 2.1693 0.3626 0.12073 0.48215 0.1809 0.3626 0.1809 0.48215 0 0.84086-0.48215 1.0838-1.4464l10.819-35.975c0.48215-1.4461 0.78303-2.5308 0.90261-3.2541 0.23913-0.72314 0.36257-1.145 0.36257-1.2655 0.11958-0.24108 0.11958-0.42187 0-0.54235v-0.72314c0-1.2053-0.42429-2.2297-1.2652-3.0734-0.84086-0.96419-2.3452-1.8079-4.5091-2.531-2.2834-0.96419-3.6683-1.5668-4.1465-1.8079-0.48215-0.24104-0.72128-0.54232-0.72128-0.90391 0-0.84368 0.42043-1.5066 1.2613-1.9887 0.96044-0.48213 2.5265-0.96419 4.6904-1.4463 1.6818-0.36158 3.6066-0.72314 5.7703-1.0847 2.2834-0.48212 4.4513-0.84368 6.4955-1.0847 2.1639-0.36159 4.027-0.66289 5.589-0.90394 1.6856-0.24104 2.8275-0.36159 3.4292-0.36159 1.9209 0 2.8853 0.84369 2.8853 2.531 0 0.84365-0.0617 1.6271-0.1813 2.3502-0.11957 0.72314-0.42043 1.6873-0.90258 2.8926l-30.48 99.975c-0.12342 0.84357-0.30086 1.627-0.54385 2.3502-0.11958 0.72323-0.1813 1.4461-0.1813 2.1693 0 2.1697 0.72515 3.2544 2.1678 3.2544 1.323 0 3.0048-0.54232 5.049-1.6274 2.0443-1.205 4.1465-2.7116 6.3142-4.5195 2.1639-1.9282 4.027-3.917 5.589-5.966 0.36257-0.36141 0.6017-0.54232 0.72128-0.54232 0.11958-0.12073 0.30088-0.1809 0.54387-0.1809 1.1996 0 1.6818 0.60249 1.4426 1.8079 0 1.4464-0.72128 3.3144-2.1639 5.6045-1.4464 2.1693-3.3674 4.3991-5.7743 6.6892-2.2835 2.2896-4.81 4.4592-7.5757 6.5082-2.646 2.0489-5.2921 3.6759-7.9344 4.8813-2.5265 1.3257-4.6904 1.9884-6.4955 1.9884-1.4426 0-2.8853-0.42159-4.3278-1.2656-1.4426-0.84357-2.646-1.9282-3.6066-3.2538-0.9643-1.4464-1.4426-2.8926-1.4426-4.3391 0-0.60249 0.23916-2.1091 0.72131-4.5195 0.35871-1.3257 0.84086-2.953 1.4426-4.8813 0.60173-1.9286 1.1996-3.7966 1.8013-5.6045 0.60173-1.8079 1.0222-3.1337 1.2652-3.977 0.23913-0.84397 0.23913-0.7834 0 0.18051 0.23913-0.84356 0.17744-1.4461-0.1813-1.8079-0.36257-0.36141-0.72128-0.24069-1.0839 0.36181-8.297 10.365-15.572 17.838-21.824 22.417-6.2525 4.4598-12.385 6.6892-18.399 6.6892zm9.7395-11.751c2.889 0 6.1329-1.0846 9.7434-3.2544 3.6066-2.29 7.155-5.2428 10.642-8.8583 3.487-3.736 6.731-7.834 9.7395-12.293 3.0048-4.4598 5.3499-8.8589 7.0318-13.197 1.8052-4.4598 2.7078-8.5572 2.7078-12.294 0-3.3748-0.72131-6.026-2.1639-7.9546-1.4426-1.9282-3.5488-2.8926-6.3142-2.8926-2.5265 0-5.4695 1.2656-8.8369 3.7966-3.2479 2.5311-6.5533 5.8453-9.9208 9.943-3.2476 4.098-6.3142 8.5572-9.1995 13.378-2.7656 4.8212-5.0491 9.6419-6.8542 14.463-1.6818 4.8207-2.5265 9.0394-2.5265 12.655 0 2.4104 0.42043 4.098 1.2652 5.0617 0.96044 0.9643 2.5226 1.4465 4.6865 1.4465z" fill="#fff5eb" stroke-width=".28196"/>
  <path d="m452.46 542.63c-2.2835 0-4.27-0.84357-5.9516-2.5307-1.6856-1.5672-2.5265-3.194-2.5265-4.8813 0-0.48216 0.0617-0.96431 0.18128-1.4465 0.11958-0.60249 0.30088-1.2054 0.54001-1.8079 4.4513-9.1598 8.297-17.898 11.545-26.214 3.2476-8.4368 6.1947-16.03 8.8369-22.779 0.48216-1.2054 0.1813-1.8079-0.89871-1.8079-0.60174 0-1.7435 0.30124-3.4292 0.90374-1.5622 0.60288-3.2479 1.4464-5.0491 2.5311-1.6856 0.9643-3.1862 1.9286-4.5091 2.8926-0.96431 0.60289-1.8052 0.7834-2.5265 0.54233-0.6017-0.36142-0.90258-0.90374-0.90258-1.627s0.54387-1.7477 1.6239-3.0734c1.2035-1.3257 2.7656-2.8323 4.6904-4.5195 2.0443-1.6875 4.3278-3.4351 6.8542-5.243 2.5265-1.8079 5.1108-3.4949 7.7567-5.0617 2.7656-1.6875 5.4695-3.0734 8.1157-4.1581 1.323-0.60249 2.646-0.48215 3.9692 0.36142 1.4426 0.72323 2.5226 1.7477 3.244 3.0734 0.84475 1.2054 1.0839 2.2299 0.72131 3.0734l-21.28 51.525c-0.36257 0.72322-0.66342 1.5066-0.90258 2.3502-0.11958 0.72323-0.18127 1.3863-0.18127 1.9888 0 0.72322 0.23913 1.205 0.72128 1.4461 0.60173 0.24107 1.1417 0.36181 1.6239 0.36181 1.4426 0 3.2479-0.72323 5.4117-2.1697 2.2835-1.5668 4.6286-3.4348 7.0318-5.6042 2.5265-2.29 4.81-4.4592 6.8542-6.5082 0.24303-0.36181 0.48216-0.54232 0.72131-0.54232 0.36258 0 0.72515 0.18051 1.0839 0.54232 0.36257 0.24107 0.54001 0.60249 0.54001 1.0846 0 1.9282-1.1996 4.4592-3.6066 7.5929-2.4031 3.0133-5.4117 6.026-9.0182 9.0394-3.6066 3.0133-7.3363 5.5445-11.182 7.5929-3.7298 2.049-7.0972 3.0734-10.102 3.0734zm35.175-94.733c-2.1639 0-3.9692-0.7834-5.4117-2.3502-1.323-1.6871-1.9865-3.6159-1.9865-5.785 0-3.2544 1.1456-6.1467 3.4292-8.6779 2.2835-2.6515 5.1108-3.977 8.4783-3.977 2.2835 0 4.027 0.9642 5.2304 2.8926 1.323 1.9285 1.9826 3.9776 1.9826 6.1467 0 3.0133-1.1417 5.7249-3.4252 8.1351-2.2873 2.4108-5.053 3.6159-8.297 3.6159z" fill="#fff5eb" stroke-width=".28196"/>
  <path d="m514.71 542.63c-3.4907 0-6.7964-0.96391-9.9208-2.8926-3.0085-2.0489-5.4734-4.7606-7.3981-8.1351-1.8013-3.4954-2.7039-7.2314-2.7039-11.209 0-5.6643 1.1417-11.751 3.4252-18.259 2.2873-6.5082 5.5312-12.655 9.7434-18.44 4.2082-5.7855 9.1378-10.486 14.789-14.102 5.6508-3.736 11.845-5.6045 18.58-5.6045 6.731 0 12.023 2.1697 15.872 6.5088 3.8456 4.2181 5.7703 9.702 5.7703 16.452 0 5.4235-1.1417 11.389-3.4252 17.898-2.1678 6.3878-5.3539 12.474-9.5621 18.26-4.2082 5.6646-9.2573 10.365-15.151 14.101-5.8899 3.6159-12.567 5.4235-20.019 5.4235zm3.0626-5.966c2.646 0 5.3538-1.2656 8.1193-3.7963 2.7656-2.6518 5.4117-6.0867 7.9344-10.305 2.6461-4.2187 4.9295-8.8583 6.8542-13.921 2.0443-5.0623 3.6683-10.124 4.8717-15.186 1.2034-5.0617 1.8013-9.6419 1.8013-13.74 0-3.0127-0.54001-5.3632-1.62-7.0507-0.9643-1.8079-2.8272-2.7116-5.593-2.7116-2.5265 0-5.1726 1.205-7.938 3.6153-2.7656 2.4108-5.4695 5.6646-8.1157 9.7626-2.5265 3.9776-4.81 8.4368-6.8542 13.378-2.0443 4.8212-3.6683 9.8226-4.8678 15.005-1.2035 5.1824-1.8052 10.124-1.8052 14.824 0 3.4955 0.60173 6.0867 1.8052 7.7739 1.323 1.5668 3.1244 2.3502 5.4077 2.3502z" fill="#fff5eb" stroke-width=".28196"/>
</svg>
