<?xml version="1.0" encoding="UTF-8"?>
<svg width="1200" height="900" version="1.1" viewBox="0 0 1200 900" xmlns="http://www.w3.org/2000/svg">
    <rect width="1200" height="900" fill="#1c2021" />
    <path
        d="m115.48 504.08-15.519 10.346q3.1038 8.4492 8.9663 15.519 5.8625 7.0697 14.139 11.381 8.4492 4.1382 18.795 4.1382 11.381 0 21.209-5.0004 9.8284-5.0004 16.036-13.622 6.2076-8.6216 6.725-19.83 0.34484-9.4837-3.4486-15.864-3.6211-6.5523-9.6561-10.863-5.8625-4.3106-12.76-6.8974-5.0004-2.0692-9.3114-4.1382-4.1382-2.2416-7.242-4.6557-3.1038-2.5865-4.828-5.5178-1.5519-3.1038-1.3795-6.5523 0.17244-4.1383 2.2416-7.4144 2.0692-3.2762 5.8625-5.1731 3.966-1.8968 9.4837-1.8968 6.5523 0 10.863 2.4141 4.4834 2.414 7.242 6.3799 2.9313 3.7935 5.0004 8.1042l16.726-8.7939q-2.7589-6.8974-7.7595-12.76-5.0004-6.0352-12.415-9.6561-7.4148-3.6208-17.588-3.6211-11.381-0.17242-20.347 4.3106-8.9663 4.3106-14.312 12.07-5.3455 7.5871-5.8625 17.243-0.17244 7.242 2.2416 12.76 2.5865 5.3455 6.725 9.3114 4.1383 3.966 8.7939 6.725 4.6557 2.7589 8.9663 4.6557 6.2076 2.7589 11.208 5.3455 5.0004 2.5865 7.7595 6.2076 2.9313 3.6211 2.7589 9.6561-0.17242 4.828-2.9313 9.139-2.7589 4.3106-7.7595 6.8974-4.828 2.5865-11.208 2.5865-6.8974 0-11.898-2.9313-5.0004-2.9313-8.7939-8.1042-3.6211-5.1731-6.725-11.898z"
        fill="#f5f5f5"
    />
    <path
        d="m200.49 463.56-2.9313 16.381h44.142l2.7589-16.381zm17.243-27.589-17.933 106.91h17.761l18.623-106.91z"
        fill="#f5f5f5"
    />
    <path
        d="m266.71 511.84 8.4493-48.28h-18.623l-8.7939 50.352q-1.207 8.2769 0.68974 15.347 1.8967 6.8974 7.242 11.036 5.3453 4.1383 14.312 4.1383 8.1042 0 14.139-3.4486 6.2076-3.6211 10.346-9.8288l-1.8968 11.725h18.623l13.622-79.318h-18.45l-8.6216 48.972q-0.86216 4.828-3.7935 8.7939-2.7589 3.7935-7.0697 6.0352-4.1382 2.0692-9.3114 2.0692t-7.7595-2.414q-2.414-2.5865-3.1038-6.5523-0.51731-4.1383 0-8.6216z"
        fill="#f5f5f5"
    />
    <path
        d="m414.65 408.38-22.589 134.5h18.105l23.278-134.5zm-79.834 94.837q-1.5519 11.208 1.8967 20.692 3.4486 9.3114 10.863 15.002 7.5871 5.5178 18.623 5.5178 7.9318 0 14.484-3.1038 6.725-3.2762 11.725-8.9663 5.1731-5.6902 8.4492-13.105 3.4486-7.5871 4.4833-16.036 1.0346-8.1042 0-15.347-0.86216-7.4144-4.1382-13.277-3.2761-5.8629-8.7939-9.3114-5.3455-3.4486-13.45-3.4486-10.863-0.17243-20.347 5.3455-9.4837 5.5178-15.864 15.002-6.2076 9.3114-7.9318 21.037zm18.967 0q1.207-7.0697 5.1731-12.933 4.1383-5.8625 10.001-9.139 6.0352-3.2762 12.76-3.1038 4.6557 0.17242 7.9318 2.2416 3.4486 2.0692 5.6902 5.5178 2.4141 3.4486 3.2762 7.9318t0.17242 9.4837q-0.86216 5.1731-3.4486 9.8288-2.5865 4.4833-6.3799 7.9318-3.6211 3.4486-8.1042 5.5178-4.3106 1.8967-8.7939 1.7243-6.725 0-11.208-3.4486-4.3106-3.4486-6.2076-9.139-1.7243-5.8625-0.86216-12.415z"
        fill="#f5f5f5"
    />
    <path
        d="m450.69 432q0 4.6557 3.2762 7.9318 3.4486 3.2762 8.2769 3.2762t8.2769-3.2762q3.4486-3.2762 3.4486-7.9318 0-4.828-3.4486-8.1042-3.4486-3.2761-8.2769-3.2762t-8.2769 3.2762q-3.2762 3.2762-3.2762 8.1042zm-3.1038 31.555-13.105 79.318h18.105l13.45-79.318z"
        fill="#f5f5f5"
    />
    <path
        d="m479.14 503.22q-1.5519 11.381 2.5865 20.864 4.1382 9.3114 12.76 14.829t20.347 5.5178q12.07 0 22.244-5.3455 10.174-5.5178 16.899-14.829 6.725-9.3114 8.2769-21.037 1.5519-11.381-2.5865-20.692-4.1382-9.4837-12.76-15.002-8.4492-5.6902-20.347-5.6902-12.07 0-22.416 5.5178-10.173 5.3455-16.899 14.657-6.5523 9.3114-8.1042 21.209zm18.623 0q1.0346-6.8974 4.828-12.588 3.9659-5.6902 9.8288-9.139t12.588-3.2762q6.725 0 11.208 3.6211 4.483 3.6211 6.3799 9.3114 1.8967 5.5178 1.0346 12.07-1.0346 6.725-5.0004 12.588-3.7935 5.6902-9.6561 8.9663-5.8625 3.2762-12.76 3.2762-6.725 0-11.208-3.4486-4.3106-3.6211-6.2076-9.3114-1.8967-5.6902-1.0346-12.07z"
        fill="#f5f5f5"
    />
    <path
        d="m847.59 431.58c-48.184-0.70521-88.195 38.164-88.903 86.344-0.70561 48.184 38.155 88.199 86.336 88.903 48.184 0.70521 88.195-38.155 88.903-86.336 0.70521-48.184-38.155-88.207-86.336-88.911zm-0.51592 35.264c29.129 0.42642 52.023 24.003 51.595 53.131-0.42646 29.129-24.003 52.019-53.131 51.591-29.129-0.42642-52.023-23.994-51.595-53.123 0.42606-29.129 24.003-52.023 53.131-51.595z"
        fill="#fb9db6"
    />
    <path
        d="m898.61 292.96c-21.329 0.10496-42.774 6.8146-60.988 20.599l24.823 32.803c27.101-20.511 65.079-15.255 85.592 11.846 20.483 27.064 15.267 64.979-11.741 85.508-0.036 0.0276-0.0716 0.0524-0.10797 0.0802l24.826 32.802c27.1-20.512 65.079-15.255 85.588 11.846 20.512 27.101 15.261 65.083-11.845 85.592l24.823 32.799c44.83-33.928 53.751-98.396 19.822-143.22-20.077-26.528-50.852-40.483-81.917-40.419 8.4981-29.884 3.4277-63.287-16.65-89.819-20.144-26.615-51.051-40.575-82.221-40.419z"
        fill="#fb9db6"
    />
    <path
        d="m692.16 298.43c-47.173 0.51547-85.96 38.912-86.652 86.34-0.70549 48.184 38.156 88.199 86.336 88.903 3.4559 0.0509 6.8658-0.10948 10.226-0.45421l-68.978 115.55 30.275 18.079 104.82-175.56-0.0656-0.0356c7.7983-12.857 12.394-27.86 12.629-43.898 0.70522-48.184-38.156-88.199-86.336-88.903-0.75343-9e-3 -1.5076-0.0251-2.2564-0.0163zm0.37348 35.255c0.45229-4e-3 0.90766-2e-3 1.3626 5e-3 29.129 0.42642 52.023 24.001 51.595 53.131-0.14236 9.7168-2.8722 18.731-7.5124 26.425l-0.0748-0.0401-1.4173 2.3713c-9.5313 14.054-25.716 23.112-44.134 22.843-29.129-0.42642-52.023-24.001-51.595-53.131 0.41958-28.675 23.274-51.311 51.775-51.603z"
        fill="#fb9db6"
    />
</svg>
