<?xml version="1.0" encoding="UTF-8"?>
<svg width="4096" height="2048" version="1.1" viewBox="0 0 4096 2048" xmlns="http://www.w3.org/2000/svg">
  <rect width="4096" height="2048" fill="#1d0f43"/>
  <path d="m2925.9 958.98c-170.96-2.5021-312.92 135.4-315.43 306.35-2.5035 170.96 135.37 312.93 306.32 315.43 170.96 2.5021 312.92-135.37 315.43-306.32 2.5021-170.96-135.37-312.96-306.32-315.46zm-1.8304 125.12c103.35 1.513 184.58 85.161 183.07 188.51-1.513 103.35-85.162 184.56-188.51 183.04-103.35-1.513-184.58-85.131-183.07-188.48 1.5117-103.35 85.161-184.58 188.51-183.07z" fill="#fb9db6" stroke-width="13.68"/>
  <path d="m3106.9 467.17c-75.674 0.37238-151.77 24.178-216.39 73.084l88.072 116.38c96.153-72.774 230.9-54.125 303.68 42.029 72.675 96.024 54.166 230.55-41.658 303.38-0.1244 0.098-0.2544 0.1861-0.383 0.2846l88.08 116.38c96.148-72.775 230.9-54.126 303.67 42.029 72.778 96.153 54.145 230.92-42.025 303.68l88.072 116.37c159.06-120.38 190.71-349.11 70.329-508.13-71.232-94.121-180.43-143.63-290.65-143.41 30.151-106.03 12.162-224.54-59.073-318.68-71.471-94.43-181.12-143.95-291.73-143.41z" fill="#fb9db6" stroke-width="13.68"/>
  <path d="m2374.4 486.56c-167.36 1.8289-304.98 138.06-307.44 306.34-2.5031 170.96 135.38 312.93 306.32 315.43 12.261 0.1806 24.36-0.3885 36.282-1.6115l-244.74 409.96 107.41 64.144 371.9-622.89-0.2326-0.12586c27.668-45.617 43.976-98.846 44.808-155.75 2.5021-170.96-135.38-312.93-306.32-315.43-2.673-0.0315-5.3488-0.0892-8.0055-0.0579zm1.3256 125.08c1.6046-0.015 3.2202-7e-3 4.8345 0.0164 103.35 1.513 184.58 85.155 183.07 188.51-0.5047 34.475-10.19 66.456-26.654 93.755l-0.2654-0.14227-5.0287 8.4132c-33.817 49.864-91.242 82.002-156.58 81.046-103.35-1.513-184.58-85.157-183.07-188.51 1.4887-101.74 82.578-182.05 183.7-183.09z" fill="#fb9db6" stroke-width="13.68"/>
  <path d="m408.88 1353.2c-12.367 0-24.528-1.0684-36.457-3.2052-11.943-1.71-23.461-4.9166-34.556-9.6184-5.9645-2.1368-10.876-3.8468-14.706-5.13-3.8441-1.7086-6.4022-2.5636-7.6745-2.5636-2.134 0-4.487 0.4268-7.0452 1.2818-2.5581 0.855-4.8974 1.71-7.0315 2.565-2.5581 1.71-5.1163 3.42-7.6745 5.1286-2.134 1.2832-4.0492 1.9248-5.7592 1.9248-2.1341 0-4.9112-1.4966-8.3175-4.4884-3.4063-2.9932-5.1163-5.7716-5.1163-8.3352 0-2.9932 2.1341-9.1902 6.4022-18.595 4.2545-9.4036 8.7416-21.159 13.434-35.264 5.1163-14.534 8.7415-30.136 10.876-46.806 1.6963-10.259 5.9645-15.389 12.791-15.389 4.2682 0 6.8263 2.565 7.6745 7.695 1.2722 4.7018 1.9152 12.182 1.9152 22.441 0 15.389 2.5581 29.707 7.6745 42.959 5.554 13.25 13.872 23.937 24.952 32.059 11.518 7.6936 26.224 11.54 44.145 11.54 26.444 0 48.4-7.4802 65.883-22.441 17.483-14.96 26.225-35.266 26.225-60.913 0-10.685-1.6963-20.517-5.1163-29.494-3.4064-8.9754-9.1656-18.38-17.264-28.211-8.1122-10.26-19.617-22.229-34.542-35.907-19.193-17.525-34.98-35.051-47.346-52.576-11.943-17.952-17.907-39.326-17.907-64.118 0-23.082 6.1834-43.6 18.55-61.553 12.367-17.952 29.002-32.059 49.891-42.318 21.327-10.686 45.212-16.03 71.656-16.03 9.8085 0 19.193 1.0687 28.14 3.2059 9.3845 1.7099 18.126 3.6334 26.238 5.7706 8.5226 2.5647 15.554 4.9158 21.108 7.053 5.5404 2.1372 10.233 3.2059 14.063 3.2059 5.13 0 9.6033-1.0687 13.434-3.2059 2.1341-1.2824 4.2682-2.3509 6.4023-3.2059 2.134-0.85487 4.2681-1.2824 6.4022-1.2824 3.8304 0 6.1834 1.496 7.0315 4.4883 0.8482 2.5647 0.8482 4.9158 0 7.053-1.71 2.5647-4.4733 7.4804-8.3174 14.747-3.4063 6.8386-7.2504 16.457-11.519 28.852-3.8304 12.397-7.4556 27.999-10.862 46.806-0.8618 5.985-2.5718 10.687-5.13 14.107-2.1204 2.9918-4.4734 4.4884-7.0315 4.4884-2.9823 0-5.3352-1.71-7.0315-5.13-1.286-3.42-1.9289-8.3352-1.9289-14.747 0-29.067-6.8127-51.508-20.465-67.323-13.653-16.244-31.779-24.365-54.378-24.365-14.925 0-28.359 3.8471-40.301 11.541-11.518 7.6942-20.684 17.525-27.51 29.494-6.3885 11.54-9.5896 23.724-9.5896 36.547 0 10.685 1.71 20.944 5.1163 30.776 3.8441 9.4036 10.233 19.449 19.193 30.136 8.9604 10.259 21.108 22.441 36.457 36.547 23.037 20.09 39.672 38.684 49.905 55.783 10.233 16.67 15.349 34.623 15.349 53.858 0 22.655-5.7593 44.028-17.264 64.118-11.519 19.662-28.578 35.692-51.177 48.088-22.175 11.969-49.481 17.954-81.888 17.954z" fill="#fff5eb"/>
  <path d="m643.98 1352.5c-4.2682 0-8.9604-1.71-14.077-5.1286-4.6923-3.42-8.7415-7.2668-12.148-11.542-2.9959-4.7018-4.487-8.762-4.487-12.182 0-5.985 0.643-11.114 1.9289-15.389 1.6963-4.7018 3.8304-10.472 6.3885-17.312l60.78-167.99c1.2722-4.2736 1.067-7.052-0.643-8.3352-1.71-1.71-3.8441-2.565-6.4022-2.565l-26.868-1.2818c-6.3886-0.4268-10.233-1.71-11.505-3.8468-1.2859-2.565-1.9289-4.7018-1.9289-6.4118 0-0.855 1.067-2.565 3.2011-5.13 2.5582-2.9918 5.7593-5.7702 9.5897-8.3352 3.8441-2.9918 7.8934-4.4884 12.162-4.4884h26.225c5.1163 0 8.5363-0.855 10.233-2.565 2.1341-1.7086 4.4871-5.1286 7.0452-10.259l15.992-33.341c2.5582-4.275 6.1834-8.9768 10.876-14.105 5.1164-5.13 10.452-9.405 15.992-12.824 5.5404-3.8482 9.8085-5.7716 12.791-5.7716 4.6922 0 7.6744 2.7784 8.9604 8.3352 1.2722 5.13 1.067 10.26-0.643 15.389l-15.992 44.883c-1.2859 4.275-1.2859 7.0534 0 8.3352 1.71 0.855 4.4733 1.2832 8.3174 1.2832 7.6745 0 15.568 0.6402 23.666 1.9234 8.0986 1.2818 15.349 2.3502 21.751 3.2052 7.6745 1.2832 12.367 2.7784 14.077 4.4884 1.6964 1.71 2.5582 3.8468 2.5582 6.4118 0 0.855-1.067 2.565-3.2011 5.13-1.71 2.1368-5.3352 3.4186-10.876 3.8468-8.0986 0.4268-15.992 1.0684-23.666 1.9234-7.2504 0.4268-15.349 0.855-24.309 1.2818-7.2504 0.4282-12.586 1.4966-15.992 3.2066-2.9822 1.71-5.1163 4.2736-6.4022 7.6936l-53.735 148.76c-2.1341 6.4118-3.2011 11.755-3.2011 16.03 0 3.8468 1.067 6.6252 3.2011 8.3352s5.1163 2.565 8.9604 2.565c5.9645 0 12.572-2.3516 19.822-7.0534 7.2504-4.7018 14.296-10.045 21.122-16.03 7.2504-6.4118 13.215-11.969 17.907-16.67 3.4063-3.4186 6.4022-4.9152 8.9604-4.4884 2.5581 0 3.8304 0.855 3.8304 2.565 0.8618 2.1368 0.6429 4.9166-0.643 8.3352-0.8481 2.9918-2.3393 6.1984-4.4733 9.6184-5.1164 6.8386-11.3 14.105-18.55 21.799-7.2504 7.2668-15.349 14.534-24.309 21.8-8.5226 6.84-17.278 13.037-26.224 18.594-8.9604 5.13-17.483 9.1902-25.595 12.183-7.6745 3.4186-14.501 5.1286-20.465 5.1286z" fill="#fff5eb"/>
  <path d="m853.88 1352.5c-6.4022 0-12.586-2.7784-18.55-8.3352-5.5541-5.1286-9.8085-11.114-12.804-17.952-2.5581-7.2668-2.7633-13.465-0.6292-18.595l64.611-152.6c2.9822-6.8386 4.6786-12.61 5.1163-17.312 0.4241-4.7018-1.067-7.052-4.487-7.052-2.1341 0-5.9645 1.9234-11.505 5.7702-5.5541 3.42-11.519 7.6936-17.921 12.824-6.3886 5.1286-12.367 10.259-17.907 15.389-2.5582 2.1368-5.3352 3.2052-8.3175 3.2052-2.5581-0.4268-3.844-1.71-3.844-3.8468 0-2.565 0.6429-5.5568 1.9288-8.9768 1.6964-3.8468 4.0493-7.907 7.0316-12.182 11.518-14.96 23.885-27.571 37.1-37.829 13.229-10.259 26.019-18.38 38.386-24.365 12.791-5.9836 23.461-8.9768 31.984-8.9768 3.42 0 7.0452 1.9234 10.876 5.7716 4.2682 3.4186 7.4693 7.4802 9.6034 12.182 2.1204 4.7018 2.1204 8.9768 0 12.824-11.943 25.219-24.309 52.15-37.114 80.789-12.367 28.212-25.158 57.278-38.372 87.2-3.8441 8.1218-5.9782 15.389-6.4023 21.8-0.4241 5.9836 1.4911 8.9754 5.7593 8.9754s10.657-3.8468 19.193-11.54c8.5227-8.1218 18.126-18.38 28.783-30.777 10.657-12.395 21.751-25.432 33.27-39.111 13.639-15.389 26.649-31.417 39.015-48.089 12.367-16.67 23.242-32.059 32.627-46.165 9.8085-14.105 16.635-24.579 20.465-31.417 3.844-6.84 7.6881-11.969 11.518-15.389 4.2682-3.42 8.5363-5.13 12.791-5.13 4.2682 0 8.3175 1.71 12.162 5.13 4.2682 3.42 7.2504 7.4802 8.9468 12.182 2.134 4.275 2.3529 8.3352 0.6429 12.183l-74.843 180.17c-2.9822 6.4118-4.2681 11.54-3.844 15.389 0.4377 3.8468 2.3529 5.7702 5.7592 5.7702 4.6923 0 11.3-2.7784 19.836-8.3352 8.9604-5.985 18.126-12.824 27.51-20.519 9.8086-7.6936 17.702-14.532 23.666-20.517 0.8482-0.855 1.4911-1.2818 1.9152-1.2818 1.71 0 3.2011 0.855 4.4871 2.565 1.6963 1.2818 2.5581 2.7784 2.5581 4.487 0 2.565-1.2859 5.5582-3.8441 8.9768-2.134 2.9918-5.1163 6.4118-8.9604 10.259-3.8304 3.8482-8.0985 7.695-12.791 11.542-4.2681 3.42-8.7415 6.6252-13.434 9.617-4.6923 2.565-8.9604 4.7032-12.791 6.4118-7.2504 7.2668-15.568 13.893-24.952 19.877-8.9604 5.5568-18.126 9.6184-27.51 12.182-9.3708 2.565-18.974 3.2066-28.783 1.9234-3.8304-0.4268-7.2504-3.6334-10.233-9.617-2.9822-5.985-3.4063-11.327-1.2859-16.03 5.1163-11.114 10.67-23.082 16.635-35.906 5.9781-12.824 11.518-25.006 16.635-36.546 5.1163-11.969 9.1656-22.014 12.148-30.136 1.71-4.7018 1.2859-7.2668-1.2722-7.695-2.1341-0.4268-4.2682 0.6416-6.4023 3.2066-18.755 21.8-36.033 41.676-51.806 59.63-15.363 17.525-29.426 32.486-42.23 44.883-12.791 12.395-24.309 22.014-34.542 28.852-9.8086 6.84-18.331 10.259-25.582 10.259z" fill="#fff5eb"/>
  <path d="m1183.6 1352.5c-13.215 0-24.09-4.4884-32.627-13.464-8.5226-9.405-12.791-21.159-12.791-35.266 0-16.242 3.42-33.982 10.233-53.218 6.8264-19.662 15.992-39.539 27.51-59.63 11.943-20.517 25.595-39.539 40.944-57.065 17.483-20.09 34.761-35.479 51.82-46.165 17.483-11.114 33.475-16.67 47.976-16.67 7.2504 0 13.434 1.4952 18.55 4.4884 5.5404 2.5636 13.653 7.2654 24.309 14.105 6.8263 4.275 10.876 6.8386 12.148 7.6936 1.286 0.4282 1.71 0.6416 1.286 0.6416 1.71 0 2.9822-1.71 3.844-5.13l38.372-127.59c1.71-5.1286 2.7771-8.9759 3.2012-11.541 0.8481-2.5647 1.2859-4.0609 1.2859-4.4883 0.4241-0.855 0.4241-1.4962 0-1.9235v-2.5647c0-4.2746-1.5048-7.9079-4.4871-10.9-2.9822-3.4196-8.3174-6.4118-15.992-8.9765-8.0985-3.4196-13.01-5.5568-14.706-6.4118-1.71-0.85487-2.5581-1.9234-2.5581-3.2058 0-2.9922 1.4911-5.3433 4.4733-7.053 3.4063-1.7099 8.9604-3.4196 16.635-5.1295 5.9645-1.2824 12.791-2.5647 20.465-3.8471 8.0985-1.7099 15.787-2.9922 23.037-3.8471 7.6745-1.2824 14.282-2.351 19.822-3.2059 5.9782-0.85487 10.028-1.2824 12.162-1.2824 6.8127 0 10.233 2.9922 10.233 8.9766 0 2.9921-0.2189 5.7706-0.643 8.3354-0.4241 2.5647-1.4911 5.9843-3.2011 10.259l-108.1 354.57c-0.4377 2.9918-1.067 5.7702-1.9288 8.3352-0.4241 2.565-0.643 5.1286-0.643 7.6936 0 7.695 2.5718 11.542 7.6882 11.542 4.6922 0 10.657-1.9234 17.907-5.7716 7.2504-4.2736 14.706-9.617 22.394-16.029 7.6745-6.8386 14.282-13.892 19.822-21.159 1.2859-1.2818 2.134-1.9234 2.5581-1.9234 0.4241-0.4282 1.0671-0.6416 1.9289-0.6416 4.2545 0 5.9645 2.1368 5.1163 6.4118 0 5.13-2.5581 11.755-7.6745 19.877-5.13 7.6936-11.943 15.602-20.479 23.724-8.0986 8.1204-17.059 15.815-26.868 23.082-9.3845 7.2668-18.769 13.037-28.14 17.312-8.9604 4.7018-16.635 7.052-23.037 7.052-5.1163 0-10.233-1.4952-15.349-4.4884-5.1163-2.9918-9.3845-6.8386-12.791-11.54-3.42-5.13-5.1163-10.259-5.1163-15.389 0-2.1368 0.8482-7.4802 2.5582-16.029 1.2722-4.7018 2.9822-10.473 5.1163-17.312 2.1341-6.84 4.2545-13.465 6.3885-19.877 2.1341-6.4118 3.6252-11.114 4.4871-14.105 0.8481-2.9932 0.8481-2.7784 0 0.6402 0.8481-2.9918 0.6293-5.1286-0.643-6.4118-1.2859-1.2818-2.5581-0.8536-3.8441 1.2832-29.426 36.761-55.226 63.263-77.401 79.505-22.175 15.817-43.926 23.724-65.254 23.724zm34.542-41.676c10.246 0 21.751-3.8468 34.556-11.542 12.791-8.1218 25.376-18.594 37.743-31.417 12.367-13.25 23.872-27.784 34.542-43.6 10.657-15.817 18.974-31.419 24.939-46.806 6.4023-15.817 9.6034-30.349 9.6034-43.601 0-11.969-2.5582-21.372-7.6745-28.212-5.1163-6.8386-12.586-10.259-22.394-10.259-8.9604 0-19.398 4.4884-31.341 13.465-11.519 8.9768-23.242 20.731-35.185 35.264-11.518 14.534-22.394 30.349-32.627 47.448-9.8085 17.099-17.907 34.196-24.309 51.295-5.9645 17.097-8.9604 32.059-8.9604 44.883 0 8.5486 1.4911 14.534 4.487 17.952 3.4063 3.42 8.9467 5.13 16.621 5.13z" fill="#fff5eb"/>
  <path d="m1524.7 1352.5c-8.0986 0-15.144-2.9918-21.108-8.9754-5.9782-5.5582-8.9604-11.328-8.9604-17.312 0-1.71 0.2188-3.42 0.6429-5.13 0.4241-2.1368 1.0671-4.275 1.9152-6.4118 15.787-32.486 29.426-63.477 40.944-92.971 11.518-29.922 21.97-56.851 31.341-80.789 1.71-4.275 0.643-6.4118-3.1874-6.4118-2.1341 0-6.1834 1.0684-12.162 3.2052-5.5404 2.1382-11.519 5.13-17.907 8.9768-5.9782 3.42-11.3 6.84-15.992 10.259-3.42 2.1382-6.4022 2.7784-8.9604 1.9234-2.134-1.2818-3.2011-3.2052-3.2011-5.7702s1.9289-6.1984 5.7593-10.9c4.2682-4.7018 9.8086-10.045 16.635-16.029 7.2504-5.985 15.349-12.183 24.309-18.595 8.9604-6.4118 18.126-12.395 27.51-17.952 9.8086-5.985 19.398-10.9 28.783-14.747 4.6923-2.1368 9.3845-1.71 14.077 1.2818 5.1163 2.565 8.9467 6.1984 11.505 10.9 2.996 4.275 3.8441 7.9084 2.5582 10.9l-75.473 182.74c-1.2859 2.565-2.3529 5.3434-3.2011 8.3352-0.4241 2.565-0.6429 4.9166-0.6429 7.0534 0 2.565 0.8481 4.2736 2.5581 5.1286 2.1341 0.855 4.0493 1.2832 5.7593 1.2832 5.1163 0 11.519-2.565 19.193-7.695 8.0986-5.5568 16.416-12.182 24.939-19.876 8.9604-8.1218 17.059-15.815 24.309-23.082 0.8619-1.2832 1.71-1.9234 2.5582-1.9234 1.2859 0 2.5718 0.6402 3.8441 1.9234 1.2859 0.855 1.9152 2.1368 1.9152 3.8468 0 6.8386-4.2545 15.815-12.791 26.929-8.5227 10.687-19.193 21.372-31.984 32.059s-26.019 19.664-39.658 26.929c-13.228 7.2668-25.171 10.9-35.828 10.9zm124.75-335.98c-7.6745 0-14.077-2.7784-19.193-8.3352-4.6923-5.9836-7.0452-12.824-7.0452-20.517 0-11.542 4.0629-21.8 12.162-30.777 8.0986-9.4039 18.126-14.105 30.069-14.105 8.0986 0 14.282 3.4196 18.55 10.259 4.6923 6.8397 7.0315 14.107 7.0315 21.8 0 10.687-4.0492 20.304-12.148 28.852-8.1122 8.55-17.921 12.824-29.426 12.824z" fill="#fff5eb"/>
  <path d="m1745.5 1352.5c-12.38 0-24.104-3.4186-35.185-10.259-10.67-7.2668-19.412-16.884-26.238-28.852-6.3886-12.397-9.5897-25.647-9.5897-39.754 0-20.089 4.0493-41.676 12.148-64.758 8.1122-23.082 19.617-44.883 34.556-65.4 14.925-20.519 32.408-37.189 52.449-50.013 20.041-13.25 42.011-19.877 65.896-19.877 23.872 0 42.641 7.695 56.293 23.084 13.639 14.96 20.465 34.409 20.465 58.347 0 19.235-4.0493 40.394-12.148 63.477-7.6882 22.655-18.988 44.242-33.913 64.76-14.925 20.09-32.832 36.761-53.735 50.011-20.889 12.824-44.569 19.235-70.999 19.235zm10.862-21.159c9.3845 0 18.988-4.4884 28.796-13.464 9.8086-9.405 19.193-21.587 28.14-36.547 9.3845-14.962 17.483-31.417 24.309-49.371 7.2504-17.954 13.01-35.906 17.278-53.86 4.2681-17.952 6.3885-34.196 6.3885-48.73 0-10.685-1.9152-19.021-5.7456-25.006-3.42-6.4118-10.027-9.617-19.836-9.617-8.9604 0-18.345 4.2736-28.153 12.822-9.8086 8.55-19.398 20.09-28.783 34.624-8.9604 14.107-17.059 29.922-24.309 47.448-7.2504 17.099-13.01 34.837-17.264 53.218-4.2682 18.38-6.4023 35.906-6.4023 52.576 0 12.397 2.1341 21.587 6.4023 27.571 4.6922 5.5568 11.081 8.3352 19.179 8.3352z" fill="#fff5eb"/>
</svg>
