<?xml version="1.0" encoding="UTF-8"?>
<svg
  width="4096"
  height="2048"
  version="1.1"
  viewBox="0 0 4096 2048"
  xmlns="http://www.w3.org/2000/svg"
>
  <rect width="4096" height="2048" fill="#fff5eb" />
  <path
    d="m1197 937.02c-170.94-2.5018-312.91 135.4-315.42 306.34-2.5028 170.94 135.37 312.91 306.32 315.41 170.94 2.5017 312.91-135.37 315.42-306.31 2.5017-170.94-135.37-312.94-306.32-315.44zm-1.8301 125.11c103.35 1.5132 184.58 85.159 183.07 188.5-1.5127 103.35-85.159 184.55-188.51 183.04-103.35-1.5133-184.58-85.128-183.07-188.48 1.5116-103.35 85.159-184.58 188.51-183.06z"
    fill="#fb9db6"
  />
  <path
    d="m1377.9 445.21c-75.672 0.37236-151.76 24.177-216.39 73.08l88.069 116.38c96.15-72.772 230.9-54.123 303.67 42.027 72.673 96.021 54.164 230.54-41.658 303.37-0.1292 0.0985-0.2534 0.18605-0.3826 0.28454l0.01 7e-3 88.069 116.37c96.144-72.772 230.89-54.123 303.66 42.027 72.772 96.15 54.134 230.91-42.02 303.68l88.069 116.36c159.04-120.37 190.69-349.1 70.327-508.13-71.24-94.116-180.42-143.62-290.64-143.4 30.147-106.02 12.165-224.54-59.072-318.67-71.469-94.427-181.13-143.95-291.72-143.41z"
    fill="#fb9db6"
  />
  <path
    d="m645.46 464.6c-167.35 1.8288-304.97 138.05-307.43 306.33-2.503 170.94 135.37 312.91 306.32 315.41 12.26 0.1809 24.359-0.3878 36.282-1.6115l-244.73 409.94 107.41 64.144 371.91-622.87-0.23255-0.12414c27.667-45.615 43.973-98.842 44.808-155.74 2.5029-170.94-135.37-312.91-306.32-315.41-2.6722-0.0308-5.3347-0.0465-7.9913-0.0171zm1.3262 125.08c1.6046-0.0171 3.2193-7e-3 4.8337 0.0171 103.35 1.5133 184.58 85.152 183.07 188.49-0.50406 34.473-10.19 66.452-26.653 93.75l-0.26573-0.14158-5.0279 8.4119c-33.816 49.862-91.24 81.999-156.57 81.041-103.35-1.5134-184.58-85.152-183.07-188.49 1.4885-101.73 82.563-182.04 183.67-183.08z"
    fill="#fb9db6"
  />
  <path
    d="m2562 573.87q-5.5061 14.315-14.866 41.846-8.8097 26.979-17.619 70.474h-11.012q1.6518-7.7085 2.2024-15.967 1.1012-8.2587 1.1012-15.417 0-20.372-8.2591-36.89-7.7084-17.068-24.777-26.979-17.068-10.461-45.15-10.461-33.036 0-55.06 17.068-22.024 17.068-22.024 52.858 0 20.922 9.9109 39.093 10.461 17.619 25.878 34.135 15.967 15.967 33.586 32.485 18.17 15.967 33.586 33.036 15.967 17.068 25.878 36.336 10.462 18.72 10.462 41.846 0 28.631-12.664 49.004-12.664 20.373-33.036 33.586-20.372 12.664-45.15 18.72-24.226 6.6069-48.45 6.6069-22.024 0-36.89-4.4042-14.866-3.8542-24.777-9.9105-9.9109-6.057-16.518-11.012-6.057-4.9554-11.563-6.6072-4.9557-1.6518-8.259-1.6518-7.1582 0-12.114 7.7084-4.4041 7.1582-10.461 22.023h-11.012q4.9558-12.113 10.462-28.08 5.506-15.967 12.114-40.745 6.6072-25.327 14.866-63.319h11.012q-2.2023 11.562-3.8542 22.574-1.6518 10.461-1.1012 22.023 1.6518 37.441 23.125 58.911 21.473 21.473 66.623 21.473 35.789 0 58.357-16.518 22.571-16.518 22.574-52.307 0-23.125-9.3603-41.292-8.81-18.17-23.676-33.586-14.315-15.967-30.834-30.833-15.967-14.866-30.834-30.833-14.315-16.518-23.676-36.336-8.8097-19.821-8.8097-45.15 0-26.428 10.462-46.251 10.462-20.372 27.53-33.586 17.619-13.765 39.093-20.372 21.473-7.1582 44.048-7.1582 23.125 0 39.643 5.506 16.518 5.506 31.935 17.619 6.6073 4.9554 11.012 7.7081 4.4052 2.2025 7.1582 2.2025 7.7085 0 18.17-29.181z"
    fill="#fb9dbf"
  />
  <path
    d="m2756.4 684.6-1.6518 11.012h-171.24l2.753-11.012zm-139.85 236.21q-4.9554 18.17 2.2024 26.428 7.7085 7.7081 19.821 7.7081 12.114 0 24.226-10.461 12.664-10.461 24.777-44.599l7.7084-21.473h10.462l-11.563 34.688q-12.114 35.789-31.384 49.004-18.72 13.214-44.048 13.214-22.574 0-34.688-9.3599-11.563-9.9105-13.765-27.53-2.2023-17.619 4.4052-40.194l85.344-297.32q13.214-0.55036 25.878-2.2025 13.214-1.6516 23.676-5.506z"
    fill="#fb9dbf"
  />
  <path
    d="m2953.5 777.08q-19.821 55.06-37.992 93.049-18.17 37.992-36.336 61.117-17.619 23.125-36.336 33.586-18.17 10.461-37.992 10.461-24.226 0-35.235-11.012-11.012-11.012-11.012-29.732t7.7085-42.393l53.412-160.77q5.506-16.518 3.8542-25.327t-12.664-8.8093q-10.461 0-20.923 11.562-9.9108 11.562-21.473 44.599l-7.1582 20.372h-10.461l13.765-40.194q8.2591-23.125 19.271-35.239 11.563-12.113 23.676-16.518 12.664-4.9554 23.676-4.9554 24.226 0 31.935 11.562 8.2591 11.012 6.057 28.631-1.6518 17.619-8.259 36.89l-52.311 157.47q-15.417 46.251 12.114 46.251 13.214 0 28.08-11.562 14.866-12.113 30.283-34.135 15.417-22.574 30.283-53.409 15.417-31.384 29.182-69.373 14.315-38.542 25.878-82.587zm-1.6518 143.7q-3.8542 14.866-3.8542 24.776 0.5506 9.3599 11.563 9.3599 12.113 0 22.024-12.664 10.462-13.214 20.923-43.498l7.1579-20.372h10.461l-13.765 40.194q-7.7084 23.125-19.271 35.239-11.012 12.113-23.676 16.518-12.114 4.9554-23.676 4.9554-8.8097 0-16.518-3.8542-7.7084-3.8542-11.563-11.012-4.4051-9.3599-3.3041-23.675 1.6519-14.315 7.7085-38.542l53.959-213.63q13.765-0.5503 26.429-2.2025 13.214-1.6516 23.676-5.506z"
    fill="#fb9dbf"
  />
  <path
    d="m3250.2 920.75q-3.8542 12.664-3.3035 23.675 1.1012 10.461 13.214 10.461 11.012 0 20.372-12.113 9.3602-12.664 19.821-44.048l6.6072-20.372h10.462l-12.664 40.194q-6.6072 22.023-17.619 34.688-11.012 12.113-23.125 17.068-12.113 4.9558-23.125 4.9558-33.036 0-34.688-31.384-0.5507-8.8093 1.1012-20.372 2.2023-11.562 6.0569-25.327l79.287-297.87q4.9554-18.72-1.6518-27.53-6.6073-8.8093-33.586-8.8093l3.3036-11.562q30.283-0.5503 53.412-6.057 23.125-6.057 44.048-16.518zm-123.34 36.89q13.765 0 30.833-15.967 17.619-16.518 35.242-44.048 18.17-28.08 33.036-63.319 15.417-35.789 24.226-73.778l-8.259 59.465q-21.473 56.712-42.947 90.85-20.923 34.135-42.947 49.551-21.473 14.866-45.15 14.866-17.068 0-30.283-7.7081-12.664-8.2587-19.821-24.226t-7.1582-40.745q0-26.428 8.259-56.712 8.8097-30.833 24.777-60.57 15.967-29.733 37.992-53.959 22.574-24.776 49.551-39.643 26.978-14.867 57.263-14.866 12.664 0 23.676 9.9105 11.012 9.3599 12.113 28.631l-4.4049 11.012q-2.2023-19.821-11.012-28.08-8.8097-8.8093-19.821-8.8093-20.923 0-40.745 14.315-19.271 14.315-35.242 37.992-15.967 23.675-28.08 52.858-12.114 28.631-18.72 58.911-6.6073 29.732-6.6073 56.162 0 24.226 6.057 36.336 6.057 11.562 18.17 11.562z"
    fill="#fb9dbf"
  />
  <path
    d="m3449.4 584.36q2.7527-14.315 14.315-24.776 12.113-10.461 25.878-10.461 14.315 0 22.024 10.461 8.2591 10.461 5.5061 24.776t-14.866 24.776q-11.562 10.461-25.878 10.461-13.765 0-22.024-10.461-7.7081-10.461-4.9551-24.776zm-17.069 147q11.563-34.135-7.7081-34.135-12.664 0-22.575 13.765-9.9108 13.765-20.923 42.393l-7.7084 20.372h-10.462l14.315-40.194q8.259-23.125 19.821-35.239 11.563-12.113 24.226-16.518 13.214-4.9554 24.226-4.9554 17.619 0 25.878 7.1582 8.2587 7.1582 9.9105 18.72 1.6518 11.562-1.1012 25.327-2.753 13.214-7.1582 25.878l-58.911 166.83q-5.5061 15.967-3.8542 25.327 2.2023 8.8093 12.664 8.8093 11.012 0 20.923-12.113 9.9106-12.113 22.024-44.048l7.7077-20.372h10.462l-14.316 40.194q-7.7081 21.473-18.72 34.135-11.012 12.114-23.676 17.068-12.664 5.506-25.327 5.506-23.676 0-31.935-11.012-8.2594-11.012-6.057-28.631t9.3602-37.441z"
    fill="#fb9dbf"
  />
  <path
    d="m3679.3 687.85q-17.619 0-34.135 14.315-15.968 13.765-29.732 37.992-13.214 23.675-23.676 53.409-9.9109 29.732-15.417 61.668-5.5057 31.934-5.5057 61.117 0 24.776 7.7081 36.336 8.2591 11.562 23.676 11.562 17.619 0 33.586-13.765 16.518-14.315 30.283-37.992 13.765-24.226 23.676-53.959 9.9106-29.732 15.417-61.117 5.506-31.934 5.506-61.668 0-25.327-7.7087-36.336-7.7085-11.562-23.676-11.562zm-155.82 200.96q0-24.226 6.6072-52.858 6.6073-28.631 19.821-56.712 13.214-28.08 31.935-51.206 19.271-23.125 44.599-36.89 25.328-14.315 56.162-14.315 34.136 0 54.506 21.473 20.923 20.922 20.923 64.971 0 24.226-6.6072 52.858-6.6073 28.631-19.821 56.712-13.214 28.08-32.485 51.206-18.72 23.125-44.048 37.441-25.328 13.765-56.162 13.765-34.136 0-55.06-21.473-20.372-21.473-20.372-64.971z"
    fill="#fb9dbf"
  />
  <path
    d="m2851.4 1065q51.452 0 78.726 27.895 27.895 27.276 27.895 86.164 0 52.69-21.078 99.81-21.078 47.113-55.792 87.406-34.715 39.674-76.872 70.046-41.531 30.376-83.692 49.592-42.154 19.216-77.488 24.796l-3.7198-12.398q31.615-8.6787 64.475-29.755 32.855-20.457 61.986-52.071 29.135-31.615 52.071-72.529 23.557-40.912 36.572-89.889 13.638-48.973 13.638-104.15 0-43.395-8.6787-57.653-8.059-14.878-23.557-14.878-21.078 0-38.436 18.597-17.358 18.597-30.376 47.735-12.398 28.516-19.216 60.132-6.1989 30.996-6.1989 57.653 0 29.755 8.6787 42.154 8.6787 12.398 21.697 12.398 14.259 0 29.756-14.259t26.656-49.592l10.538 3.0994q-9.9184 33.475-25.417 53.313-15.498 19.837-35.334 28.515-19.216 8.0587-40.912 8.0587-37.195 0-62.608-23.556-24.796-23.557-24.796-70.053 0-36.572 15.498-70.046 16.117-33.475 44.014-59.51 27.895-26.656 63.853-41.531 36.572-15.498 78.107-15.498z"
    fill="#fb9dbf"
  />
  <path
    d="m3217.8 1065q57.656 0 89.889 30.376 32.234 29.755 32.234 82.444 0 41.531-17.358 81.825-17.358 40.293-47.735 72.529-30.376 32.234-70.669 51.449-39.674 19.216-84.311 19.216-56.408 0-89.889-29.755-33.475-29.755-33.475-83.688 0-42.154 17.358-81.824 17.977-39.674 48.354-71.914 30.996-32.854 70.669-51.449 40.293-19.216 84.926-19.216zm-9.9184 11.158q-26.036 0-48.354 19.837-22.316 19.216-39.055 52.071-16.117 32.854-24.796 73.148-8.679 40.293-8.6786 80.587 0 48.354 12.398 69.427 12.398 20.457 30.376 20.457 27.276 0 48.973-20.457 21.697-20.457 37.195-53.932 16.117-33.475 24.796-73.764 8.6787-40.293 8.6787-79.348 0-47.735-11.778-67.57-11.778-20.457-29.756-20.457z"
    fill="#fb9dbf"
  />
  <path
    d="m3551 1064.3q46.49 0 73.764 16.737 27.277 16.737 27.277 45.252 0 21.697-13.638 40.293-13.018 17.977-34.715 32.854-21.078 14.259-46.49 24.177-24.796 9.9184-48.354 15.498 33.475 0.6199 60.132 8.6787 26.656 7.439 42.154 24.177 15.498 16.737 15.498 43.395 0 31.615-21.078 58.891-20.457 26.656-55.173 47.113-34.715 21.078-77.488 35.334-42.154 14.878-86.168 22.317-43.395 8.0586-81.828 8.6787l3.0993-11.158q36.572-2.4794 76.25-14.259 39.674-11.778 74.39-33.475 34.715-21.078 55.792-51.449 21.078-30.996 21.078-71.914 0-24.796-9.9184-39.674-9.2987-15.498-27.896-16.737-9.9187 4.3395-19.217 7.439-8.6787 3.0993-16.738 3.0993-4.9592 0-8.6787-1.8596-3.7198-1.8596-1.8594-7.4389 1.8594-8.6787 13.638-10.538 11.778-1.8596 27.896-0.6194 21.697-8.6787 38.436-22.936 17.358-14.878 27.896-33.475 10.538-19.216 10.538-41.531 0-26.035-15.498-40.912-14.878-14.878-42.154-14.878-16.738 0-33.475 6.1986-16.117 6.1986-29.756 16.737-13.018 10.538-21.697 24.177-8.0587 13.018-8.0587 26.656 0 14.878 8.0587 22.317 8.6786 7.4389 27.896 7.4389 21.076 0 38.436-9.2983l6.8193 9.2983q-13.018 6.819-26.036 9.9184-12.398 3.0993-23.557 3.0993-9.9184 0-21.078-3.0993-10.538-3.7198-17.977-12.398-7.4389-9.2984-7.4389-26.656 0-22.936 19.216-44.633 19.837-21.697 53.313-35.953 33.475-14.878 74.39-14.878z"
    fill="#fb9dbf"
  />
</svg>
