<?xml version="1.0" encoding="UTF-8"?>
<svg width="4096" height="2048" version="1.1" viewBox="0 0 4096 2048" xmlns="http://www.w3.org/2000/svg">
    <rect width="4096" height="2048" fill="#1c2021" />
    <path
        d="m329.59 1216-55.043 36.695q11.009 29.968 31.802 55.043 20.793 25.075 50.15 40.365 29.968 14.678 66.662 14.678 40.365 0 75.224-17.735 34.859-17.735 56.876-48.314 22.017-30.579 23.852-70.331 1.2231-33.637-12.232-56.265-12.843-23.24-34.248-38.53-20.793-15.289-45.257-24.464-17.735-7.3389-33.026-14.678-14.678-7.9507-25.686-16.513-11.009-9.1738-17.124-19.571-5.5043-11.008-4.8927-23.24 0.61158-14.678 7.9506-26.297 7.3389-11.62 20.793-18.348 14.066-6.7274 33.637-6.7274 23.24 0 38.53 8.5622 15.902 8.5622 25.686 22.628 10.397 13.455 17.735 28.744l59.323-31.19q-9.7853-24.464-27.521-45.257-17.735-21.406-44.034-34.248-26.299-12.842-62.381-12.843-40.365-0.61155-72.167 15.289-31.802 15.289-50.761 42.81-18.959 26.91-20.793 61.158-0.61158 25.686 7.9506 45.257 9.1737 18.959 23.852 33.026 14.678 14.066 31.19 23.852 16.513 9.7852 31.802 16.513 22.017 9.7852 39.752 18.959 17.735 9.1738 27.521 22.017 10.397 12.843 9.7853 34.248-0.61155 17.124-10.397 32.414-9.7853 15.289-27.521 24.464-17.124 9.1737-39.752 9.1737-24.464 0-42.199-10.397-17.735-10.397-31.19-28.744-12.843-18.348-23.852-42.199z"
        fill="#f5f5f5"
    />
    <path
        d="m631.1 1072.3-10.397 58.1h156.56l9.7853-58.1zm61.158-97.853-63.605 379.19h62.993l66.051-379.19z"
        fill="#f5f5f5"
    />
    <path
        d="m865.95 1243.6 29.968-171.24h-66.051l-31.19 178.59q-4.281 29.356 2.4464 54.431 6.7274 24.464 25.686 39.141 18.959 14.678 50.761 14.678 28.744 0 50.15-12.232 22.017-12.843 36.695-34.861l-6.7274 41.588h66.051l48.314-281.33h-65.44l-30.579 173.69q-3.0579 17.124-13.455 31.19-9.7853 13.455-25.075 21.406-14.678 7.3389-33.026 7.3389-18.348 0-27.521-8.5622-8.5622-9.1737-11.009-23.24-1.8348-14.678 0-30.579z"
        fill="#f5f5f5"
    />
    <path
        d="m1390.7 876.61-80.117 477.03h64.216l82.564-477.03zm-283.16 336.37q-5.5042 39.752 6.7274 73.389 12.232 33.026 38.53 53.207 26.91 19.57 66.051 19.57 28.133 0 51.372-11.008 23.852-11.62 41.588-31.802 18.348-20.182 29.968-46.481 12.232-26.91 15.902-56.876 3.6694-28.744 0-54.431-3.0579-26.297-14.678-47.092-11.62-20.794-31.19-33.026-18.959-12.232-47.703-12.232-38.53-0.6115-72.167 18.959-33.637 19.571-56.265 53.207-22.017 33.026-28.133 74.613zm67.274 0q4.281-25.075 18.348-45.869 14.678-20.793 35.472-32.414 21.406-11.62 45.257-11.008 16.513 0.6116 28.133 7.9506 12.232 7.3389 20.182 19.571 8.5622 12.232 11.62 28.133 3.0579 15.901 0.6116 33.637-3.0579 18.348-12.232 34.861-9.1737 15.902-22.628 28.133-12.843 12.232-28.744 19.57-15.289 6.7274-31.19 6.1159-23.852 0-39.752-12.232-15.289-12.232-22.017-32.414-6.1158-20.793-3.0579-44.034z"
        fill="#f5f5f5"
    />
    <path
        d="m1518.5 960.4q0 16.513 11.62 28.133 12.232 11.62 29.356 11.62t29.356-11.62q12.232-11.62 12.232-28.133 0-17.124-12.232-28.744-12.232-11.62-29.356-11.62-17.125-2.8e-4 -29.356 11.62-11.62 11.62-11.62 28.744zm-11.008 111.92-46.481 281.33h64.216l47.703-281.33z"
        fill="#f5f5f5"
    />
    <path
        d="m1619.4 1213q-5.5043 40.365 9.1737 74.002 14.678 33.026 45.257 52.596 30.579 19.571 72.167 19.571 42.81 0 78.893-18.959 36.083-19.571 59.936-52.596 23.852-33.026 29.356-74.613 5.5043-40.365-9.1737-73.389-14.678-33.637-45.257-53.207-29.968-20.182-72.167-20.182-42.81 0-79.506 19.571-36.083 18.959-59.936 51.985-23.24 33.026-28.744 75.224zm66.051 0q3.6694-24.464 17.124-44.645 14.066-20.182 34.861-32.414t44.645-11.62q23.852 0 39.752 12.843t22.628 33.026q6.7274 19.57 3.6694 42.81-3.6694 23.852-17.735 44.645-13.455 20.182-34.248 31.802-20.793 11.62-45.257 11.62-23.852 0-39.752-12.232-15.289-12.843-22.017-33.026-6.7273-20.182-3.6694-42.81z"
        fill="#f5f5f5"
    />
    <path
        d="m2926.2 958.89c-170.9-2.5012-312.81 135.36-315.32 306.24-2.5026 170.9 135.33 312.83 306.22 315.32 170.9 2.5013 312.81-135.33 315.32-306.22 2.5013-170.9-135.33-312.85-306.22-315.35zm-1.8298 125.07c103.31 1.5124 184.52 85.132 183 188.44-1.5125 103.31-85.134 184.5-188.44 182.98-103.31-1.5124-184.52-85.103-183-188.42 1.5112-103.31 85.132-184.52 188.44-183z"
        fill="#fb9db6"
    />
    <path
        d="m3107.2 467.24c-75.648 0.37226-151.71 24.17-216.31 73.06l88.043 116.34c96.121-72.75 230.82-54.107 303.58 42.014 72.65 95.992 54.148 230.47-41.644 303.28-0.1277 0.098-0.2539 0.1859-0.383 0.2845l88.051 116.34c96.117-72.751 230.82-54.108 303.56 42.014 72.754 96.121 54.128 230.84-42.012 303.58l88.043 116.33c159-120.34 190.64-348.99 70.306-507.96-71.208-94.09-180.36-143.58-290.54-143.36 30.141-105.99 12.157-224.47-59.054-318.57-71.448-94.399-181.07-143.91-291.62-143.36z"
        fill="#fb9db6"
    />
    <path
        d="m2374.9 486.63c-167.31 1.8283-304.88 138.01-307.34 306.23-2.5022 170.9 135.33 312.83 306.22 315.32 12.257 0.1805 24.352-0.3884 36.27-1.611l-244.65 409.82 107.38 64.122 371.78-622.69-0.2326-0.12623c27.659-45.603 43.96-98.813 44.793-155.7 2.5013-170.9-135.33-312.83-306.22-315.32-2.6723-0.0315-5.3472-0.0892-8.003-0.0579zm1.3247 125.04c1.6041-0.0156 3.2193-7e-3 4.833 0.017 103.31 1.5124 184.52 85.127 183 188.44-0.5049 34.464-10.187 66.434-26.645 93.723l-0.2652-0.14225-5.0271 8.4104c-33.806 49.848-91.211 81.974-156.53 81.018-103.31-1.5124-184.52-85.128-183-188.44 1.4881-101.7 82.55-181.99 183.64-183.03z"
        fill="#fb9db6"
    />
</svg>
